<?xml version="1.0" encoding="UTF-8" standalone="no"?>
<!-- Created with Inkscape (http://www.inkscape.org/) -->

<svg
   xmlns:dc="http://purl.org/dc/elements/1.1/"
   xmlns:cc="http://creativecommons.org/ns#"
   xmlns:rdf="http://www.w3.org/1999/02/22-rdf-syntax-ns#"
   xmlns:svg="http://www.w3.org/2000/svg"
   xmlns="http://www.w3.org/2000/svg"
   xmlns:sodipodi="http://sodipodi.sourceforge.net/DTD/sodipodi-0.dtd"
   xmlns:inkscape="http://www.inkscape.org/namespaces/inkscape"
   width="143mm"
   height="193mm"
   viewBox="0 0 143 193"
   version="1.1"
   id="svg18055"
   inkscape:version="0.92.5 (2060ec1f9f, 2020-04-08)"
   sodipodi:docname="balloons-baby-left.svg">
  <defs
     id="defs18049">
    <clipPath
       clipPathUnits="userSpaceOnUse"
       id="clipPath10812">
      <path
         d="m 534.763,720.77 h 23.424 v -21.885 h -23.424 z"
         id="path10810"
         inkscape:connector-curvature="0" />
    </clipPath>
    <clipPath
       clipPathUnits="userSpaceOnUse"
       id="clipPath10796">
      <path
         d="m 487.535,756.291 h 21.904 v -23.328 h -21.904 z"
         id="path10794"
         inkscape:connector-curvature="0" />
    </clipPath>
    <clipPath
       clipPathUnits="userSpaceOnUse"
       id="clipPath10780">
      <path
         d="m 541.431,779.586 h 26.381 v -19.479 h -26.381 z"
         id="path10778"
         inkscape:connector-curvature="0" />
    </clipPath>
    <clipPath
       clipPathUnits="userSpaceOnUse"
       id="clipPath10764">
      <path
         d="m 469.513,685.486 h 26.378 V 666.01 h -26.378 z"
         id="path10762"
         inkscape:connector-curvature="0" />
    </clipPath>
    <clipPath
       clipPathUnits="userSpaceOnUse"
       id="clipPath10748">
      <path
         d="m 496.452,809.368 h 26.376 v -19.482 h -26.376 z"
         id="path10746"
         inkscape:connector-curvature="0" />
    </clipPath>
    <clipPath
       clipPathUnits="userSpaceOnUse"
       id="clipPath10732">
      <path
         d="m 440.937,799.888 h 23.046 v -20.949 h -23.046 z"
         id="path10730"
         inkscape:connector-curvature="0" />
    </clipPath>
    <clipPath
       clipPathUnits="userSpaceOnUse"
       id="clipPath10716">
      <path
         d="m 437.932,729.368 h 23.046 v -20.951 h -23.046 z"
         id="path10714"
         inkscape:connector-curvature="0" />
    </clipPath>
    <clipPath
       clipPathUnits="userSpaceOnUse"
       id="clipPath10668">
      <path
         d="m 404.102,790.035 h 29.293 v -36.69 h -29.293 z"
         id="path10666"
         inkscape:connector-curvature="0" />
    </clipPath>
    <clipPath
       clipPathUnits="userSpaceOnUse"
       id="clipPath10652">
      <path
         d="m 316.636,769.384 h 36.736 v -29.225 h -36.736 z"
         id="path10650"
         inkscape:connector-curvature="0" />
    </clipPath>
    <clipPath
       clipPathUnits="userSpaceOnUse"
       id="clipPath10636">
      <path
         d="m 345.324,858.167 h 30.492 v -30.651 h -30.492 z"
         id="path10634"
         inkscape:connector-curvature="0" />
    </clipPath>
    <clipPath
       clipPathUnits="userSpaceOnUse"
       id="clipPath10620">
      <path
         d="m 363.594,692.878 h 30.497 v -30.649 h -30.497 z"
         id="path10618"
         inkscape:connector-curvature="0" />
    </clipPath>
    <clipPath
       clipPathUnits="userSpaceOnUse"
       id="clipPath10604">
      <path
         d="m 270.767,844.76 h 30.501 v -30.649 h -30.501 z"
         id="path10602"
         inkscape:connector-curvature="0" />
    </clipPath>
    <clipPath
       clipPathUnits="userSpaceOnUse"
       id="clipPath10588">
      <path
         d="m 224.176,765.489 h 36.835 v -26.575 h -36.835 z"
         id="path10586"
         inkscape:connector-curvature="0" />
    </clipPath>
    <clipPath
       clipPathUnits="userSpaceOnUse"
       id="clipPath10572">
      <path
         d="m 289.535,690.982 h 36.836 v -26.57 h -36.836 z"
         id="path10570"
         inkscape:connector-curvature="0" />
    </clipPath>
    <clipPath
       clipPathUnits="userSpaceOnUse"
       id="clipPath10524">
      <path
         d="m 487.159,786.321 h 27.812 v -27.1 h -27.812 z"
         id="path10522"
         inkscape:connector-curvature="0" />
    </clipPath>
    <clipPath
       clipPathUnits="userSpaceOnUse"
       id="clipPath10508">
      <path
         d="m 425.375,822.358 h 27.093 v -27.676 h -27.093 z"
         id="path10506"
         inkscape:connector-curvature="0" />
    </clipPath>
    <clipPath
       clipPathUnits="userSpaceOnUse"
       id="clipPath10492">
      <path
         d="m 486.75,858.064 h 32.33 v -23.656 h -32.33 z"
         id="path10490"
         inkscape:connector-curvature="0" />
    </clipPath>
    <clipPath
       clipPathUnits="userSpaceOnUse"
       id="clipPath10476">
      <path
         d="m 410.491,733.245 h 32.325 v -23.653 h -32.325 z"
         id="path10474"
         inkscape:connector-curvature="0" />
    </clipPath>
    <clipPath
       clipPathUnits="userSpaceOnUse"
       id="clipPath10460">
      <path
         d="m 427.678,888.866 h 32.325 V 865.21 h -32.325 z"
         id="path10458"
         inkscape:connector-curvature="0" />
    </clipPath>
    <clipPath
       clipPathUnits="userSpaceOnUse"
       id="clipPath10444">
      <path
         d="m 360.833,869.51 h 29.672 v -26.225 h -29.672 z"
         id="path10442"
         inkscape:connector-curvature="0" />
    </clipPath>
    <clipPath
       clipPathUnits="userSpaceOnUse"
       id="clipPath10428">
      <path
         d="M 366.195,782.502 H 395.87 V 756.274 H 366.195 Z"
         id="path10426"
         inkscape:connector-curvature="0" />
    </clipPath>
  </defs>
  <sodipodi:namedview
     id="base"
     pagecolor="#ffffff"
     bordercolor="#666666"
     borderopacity="1.0"
     inkscape:pageopacity="0.0"
     inkscape:pageshadow="2"
     inkscape:zoom="0.49497475"
     inkscape:cx="-231.48209"
     inkscape:cy="345.49235"
     inkscape:document-units="mm"
     inkscape:current-layer="layer1"
     showgrid="false"
     inkscape:window-width="1312"
     inkscape:window-height="704"
     inkscape:window-x="0"
     inkscape:window-y="27"
     inkscape:window-maximized="1" />
  <metadata
     id="metadata18052">
    <rdf:RDF>
      <cc:Work
         rdf:about="">
        <dc:format>image/svg+xml</dc:format>
        <dc:type
           rdf:resource="http://purl.org/dc/dcmitype/StillImage" />
        <dc:title></dc:title>
      </cc:Work>
    </rdf:RDF>
  </metadata>
  <g
     id="g23917"
     inkscape:groupmode="layer"
     inkscape:label="Capa 1 copia"
     transform="translate(0,-104)" />
  <g
     inkscape:label="Capa 1"
     inkscape:groupmode="layer"
     id="layer1"
     transform="translate(0,-104)">
    <path
       d="m 70.086569,186.61613 c -3.192779,8.49347 -5.979715,17.17145 -7.62759,26.10273 -0.840094,4.55295 -1.299552,9.20714 -0.987803,13.83453 0.334474,4.97699 2.4166,9.29005 5.076775,13.45001 2.527736,3.95428 5.436108,7.64222 7.693281,11.76725 2.473764,4.52014 3.081997,9.17469 3.17467,14.25505 0.107941,5.92948 0.171144,11.68294 4.060569,16.5107 1.330443,1.65241 2.515307,3.18417 3.237518,5.19254 0.879506,2.44828 0.935608,5.16078 1.506202,7.68597 0.08167,0.36265 -0.966497,0.19297 -1.041772,-0.14041 -0.511654,-2.26342 -0.730375,-4.57588 -1.260494,-6.83577 -0.599358,-2.55482 -2.237999,-4.44571 -3.838651,-6.43291 -3.024477,-3.75496 -3.57803,-8.64305 -3.663601,-13.30466 -0.117172,-6.40327 -0.407263,-11.93129 -3.534356,-17.64594 -2.382157,-4.35222 -5.56251,-8.22854 -8.176882,-12.43965 -4.940075,-7.95585 -4.913091,-16.38582 -3.432096,-25.36331 1.518985,-9.21068 4.490201,-18.19099 7.769973,-26.91448 0.128536,-0.3429 1.161429,-0.0339 1.044257,0.27835"
       style="fill:#231f20;fill-opacity:1;fill-rule:nonzero;stroke:none;stroke-width:0.35392147"
       id="path10372"
       inkscape:connector-curvature="0" />
    <path
       d="m 81.056422,195.46729 c -3.726802,7.82461 -6.55386,16.38017 -5.376452,25.13506 0.527631,3.92783 1.98874,7.68632 2.528446,11.63743 0.474018,3.47592 0.412944,6.99947 0.23115,10.49338 -0.22405,4.30071 -0.74316,8.56226 -0.546096,12.87603 0.198128,4.33317 1.08438,8.61942 2.105202,12.82453 2.009337,8.28146 4.778875,16.34561 5.86148,24.82885 0.0522,0.4064 -0.999519,0.21344 -1.043549,-0.13299 -1.081893,-8.47302 -3.794975,-16.57033 -5.861833,-24.82886 -1.054909,-4.21534 -1.822924,-8.48677 -2.104849,-12.82417 -0.263814,-4.064 0.234702,-8.12906 0.496032,-12.18001 0.240026,-3.73874 0.257426,-7.46548 -0.181439,-11.18905 -0.502778,-4.27002 -2.07893,-8.2931 -2.649169,-12.53666 -1.125216,-8.36824 1.953943,-16.94286 5.496821,-24.38189 0.169014,-0.35454 1.188771,-0.0247 1.044256,0.27835"
       style="fill:#231f20;fill-opacity:1;fill-rule:nonzero;stroke:none;stroke-width:0.35392147"
       id="path10376"
       inkscape:connector-curvature="0" />
    <path
       d="m 48.308453,208.1385 c 0.408327,9.01171 1.267239,17.89359 4.306984,26.44352 2.812855,7.91174 10.067271,13.2147 14.205242,20.35174 2.203559,3.79977 2.702784,7.86095 2.775929,12.17966 0.07918,4.66266 0.319208,8.95597 3.215859,12.82347 4.059503,5.42255 11.230476,8.32732 13.410243,15.10947 0.123922,0.38594 -0.929214,0.24518 -1.046741,-0.12065 -2.175509,-6.76945 -9.660717,-10.03476 -13.756792,-15.50494 -2.516018,-3.36021 -2.781609,-7.43937 -2.856173,-11.48785 -0.09694,-5.26697 -0.688481,-9.69998 -3.507016,-14.27868 -3.967541,-6.44349 -10.353811,-11.27196 -13.188326,-18.43687 -3.425355,-8.65823 -4.188036,-17.98638 -4.605953,-27.20093 -0.02063,-0.4498 1.030057,-0.24554 1.046744,0.12206"
       style="fill:#231f20;fill-opacity:1;fill-rule:nonzero;stroke:none;stroke-width:0.35392147"
       id="path10380"
       inkscape:connector-curvature="0" />
    <path
       d="m 77.431204,118.18172 c -3.339066,-2.09197 -7.002312,-3.63961 -10.837057,-4.57235 -6.092629,-1.48449 -12.625186,-1.41429 -19.023887,0.54539 -0.224046,0.0684 -0.444186,0.14499 -0.666813,0.21872 4.973448,0.24342 9.772205,1.21074 14.250332,2.77566 4.012633,1.40511 7.767487,3.29388 11.140289,5.59999 7.416679,5.06801 13.002269,12.11298 15.534977,20.27943 4.658149,16.74389 -4.270771,32.24565 -18.536729,41.48102 0.03089,-0.013 0.06391,-0.019 0.09729,-0.0282 19.168751,-5.87199 29.825435,-26.37649 23.801694,-45.7962 -2.748946,-8.85931 -8.502127,-15.95508 -15.760093,-20.50344"
       style="fill:#d45500;fill-opacity:1;fill-rule:nonzero;stroke:none;stroke-width:0.35392147"
       id="path10408"
       inkscape:connector-curvature="0" />
    <path
       d="m 72.452781,169.87954 c 3.147332,-11.19858 0.508104,-22.08601 -4.825029,-32.15252 -5.042689,-10.43199 -12.795976,-20.03178 -23.646169,-22.25428 -6.836143,2.91183 -12.372739,7.78404 -16.167353,13.75374 -0.35437,0.55845 -0.69097,1.1303 -1.0155,1.70921 -4.61767,17.69922 1.40572,38.19455 16.293756,48.66781 6.097246,4.61927 12.82154,6.16973 19.766688,6.21912 0.212688,-0.0226 0.420757,-0.055 0.634153,-0.0829 4.14472,-4.33599 7.429464,-9.44457 8.959454,-15.86018"
       style="fill:#ff7f2a;fill-opacity:1;fill-rule:nonzero;stroke:none;stroke-width:0.35392147"
       id="path10416"
       inkscape:connector-curvature="0" />
    <path
       d="m 72.294138,122.74906 c -3.372799,-2.30611 -7.128007,-4.19488 -11.140288,-5.59999 -4.478129,-1.56493 -9.276886,-2.53224 -14.250332,-2.77566 -0.998453,0.32491 -1.971703,0.69321 -2.921864,1.09926 10.850194,2.2225 18.60348,11.82229 23.645813,22.25463 5.333136,10.06616 7.972719,20.95359 4.825387,32.15217 -1.529992,6.41561 -4.814735,11.52419 -8.959455,15.86053 1.933708,-0.25223 3.873449,-0.6484 5.798632,-1.23049 14.266315,-9.23537 23.195233,-24.73713 18.536729,-41.48102 -2.532351,-8.16645 -8.117941,-15.21142 -15.534622,-20.27943"
       style="fill:#ff6600;fill-opacity:1;fill-rule:nonzero;stroke:none;stroke-width:0.35392147"
       id="path10420"
       inkscape:connector-curvature="0" />
    <path
       d="m 56.550772,122.47467 c -1.115979,-1.59702 -6.488529,-4.02131 -5.760638,-0.57891 0.555329,2.63878 4.433391,4.24533 5.418707,6.59448 0.919273,-2.23838 7.216422,-3.41383 5.779104,-6.94902 -0.938094,-2.30858 -4.8403,-0.81491 -4.833908,1.36702 z"
       style="fill:#ffffff;fill-opacity:1;fill-rule:nonzero;stroke:none;stroke-width:0.35392147"
       id="path10462"
       inkscape:connector-curvature="0" />
    <path
       d="m 35.579194,133.34344 c -1.117048,-1.5995 -6.489594,-4.02414 -5.766314,-0.58173 0.556738,2.64019 4.435517,4.24497 5.421539,6.59482 0.919634,-2.23625 7.216778,-3.41241 5.778749,-6.94619 -0.939513,-2.30964 -4.842075,-0.81703 -4.833902,1.3656 z"
       style="fill:#ffffff;fill-opacity:1;fill-rule:nonzero;stroke:none;stroke-width:0.35392147"
       id="path10494"
       inkscape:connector-curvature="0" />
    <path
       d="m 22.21414,142.3906 c 3.48004,-17.8061 18.807654,-30.49235 37.15762,-30.01539 16.94318,0.44062 31.19955,13.32618 35.054535,29.331 3.459791,14.35912 -2.575314,29.61464 -14.492139,38.22418 -11.991389,8.66598 -28.367167,8.33226 -40.71895,0.70097 C 26.27046,172.63106 19.82489,157.17834 22.21414,142.3906 c 0.0639,-0.38876 0.99598,0.0416 0.94378,0.3623 -3.11111,19.23944 8.866425,37.9723 28.188925,42.30194 17.009934,3.8107 33.987555,-6.19654 40.467562,-21.83412 7.642151,-18.43723 -1.971698,-39.95173 -20.19348,-47.64299 -21.180216,-8.9401 -44.266447,5.68854 -48.463007,27.17517 -0.0764,0.39018 -1.00342,-0.0469 -0.94378,-0.3623"
       style="fill:#231f20;fill-opacity:1;fill-rule:nonzero;stroke:none;stroke-width:0.35392147"
       id="path10536"
       inkscape:connector-curvature="0" />
    <path
       d="m 73.245261,202.75624 c -1.125923,2.97674 -1.034316,7.25382 1.95998,8.36824 1.424893,0.52987 2.511049,-2.13713 3.341554,-4.3173 -0.211265,-0.23212 -0.421465,-0.44273 -0.626341,-0.60712 l 0.74884,0.28081 c -0.04012,0.10512 -0.08167,0.21484 -0.122499,0.32631 1.8176,1.97309 3.837586,5.88787 5.264964,4.1402 1.218596,-1.12395 1.635092,-2.29834 1.611303,-3.5253 -1.667405,-2.05423 -3.886585,-3.72075 -5.541562,-4.14902 l -6.045758,-5.08741 c -1.720666,-0.0765 -7.015097,2.9905 -9.988801,6.04908 1.385126,3.43605 6.692694,1.4672 9.39832,-1.47849"
       style="fill:#c0e5e7;fill-opacity:1;fill-rule:nonzero;stroke:none;stroke-width:0.35392147"
       id="path10540"
       inkscape:connector-curvature="0" />
    <path
       d="m 85.423203,207.42211 c 0.02343,1.22696 -0.392704,2.40136 -1.6113,3.52531 -1.427378,1.74766 -3.447367,-2.16711 -5.264964,-4.1402 -0.830507,2.18017 -1.916661,4.84717 -3.341908,4.31729 -2.993942,-1.11442 -3.08555,-5.39185 -1.959626,-8.36824 -2.705626,2.9457 -8.013194,4.91455 -9.39832,1.47849 -1.526796,1.56845 -2.446423,3.13585 -1.951102,4.2672 1.712495,3.93418 8.27062,-0.0367 10.500452,-0.63923 -7.005509,8.14458 4.315507,10.64225 5.972614,4.06365 -0.117173,-0.75248 -0.07209,-1.51906 0.180732,-2.22885 0.05681,0.83432 -0.01883,1.57515 -0.180732,2.22885 0.509881,3.25614 4.098205,6.34083 7.385791,4.32082 3.33374,-2.04505 2.081768,-5.84376 -0.331637,-8.82509"
       style="fill:#0000ff;fill-opacity:1;fill-rule:nonzero;stroke:none;stroke-width:0.35392147"
       id="path10544"
       inkscape:connector-curvature="0" />
    <path
       d="m 73.017626,207.10377 -1.229602,0.33125 c -0.494256,0.13371 -1.167113,0.41381 -1.946845,0.73907 -2.479801,1.03435 -6.228618,2.59892 -7.726298,0.73554 -0.141319,-0.17462 -0.263461,-0.38241 -0.363591,-0.61348 -0.374244,-0.85513 0.290802,-2.21721 1.871212,-3.83998 2.869313,-2.94922 7.8559,-5.85082 9.562008,-5.92843 l 6.091563,5.07224 c 1.575795,0.40886 3.716507,2.02318 5.333134,4.0139 v 0.003 c 1.701492,2.11631 2.497201,4.21216 2.220248,5.79896 -0.175405,1.00506 -0.775828,1.82739 -1.787063,2.44933 -2.215984,1.36032 -4.381906,0.13124 -5.559314,-1.33491 -0.628472,-0.78493 -1.059881,-1.72014 -1.219662,-2.63948 0.05894,-0.26705 0.08344,-0.59232 -0.06889,-0.77893 l -0.188184,-0.23601 -0.293643,0.11536 c -0.240737,0.10618 -0.318143,0.36512 -0.250678,0.86219 -0.45733,1.70215 -1.710368,2.93052 -3.368895,3.2893 -1.417791,0.30621 -2.8054,-0.084 -3.536841,-0.99413 -1.103911,-1.37372 -0.508814,-3.59093 1.632962,-6.08189 z m -11.5195,2.29305 v 0 c 1.870503,2.32551 5.948469,0.62442 8.649124,-0.50271 0.204874,-0.0829 0.395901,-0.1658 0.583023,-0.24165 -2.350911,3.31258 -1.373051,5.25956 -0.791449,5.98487 0.917498,1.14018 2.612953,1.63936 4.32119,1.26965 1.569758,-0.33902 2.830963,-1.33174 3.542168,-2.74531 0.251388,0.65757 0.613912,1.29187 1.066625,1.85561 1.488451,1.85314 4.102823,3.03812 6.587239,1.51376 1.209721,-0.74259 1.934062,-1.74801 2.149945,-2.98238 0.429987,-2.47297 -1.283575,-5.0553 -2.344166,-6.37293 -1.722085,-2.12831 -3.982455,-3.82693 -5.700277,-4.30847 l -6.079845,-5.11704 -0.134928,-0.004 c -1.958558,-0.0893 -7.344244,3.13937 -10.288833,6.16726 -1.868016,1.91629 -2.55117,3.49708 -2.031349,4.69406 0.129247,0.29457 0.289383,0.56127 0.471533,0.78916"
       style="fill:#231f20;fill-opacity:1;fill-rule:nonzero;stroke:none;stroke-width:0.35392147"
       id="path10548"
       inkscape:connector-curvature="0" />
    <path
       d="m 134.06417,151.91782 c -1.53781,-4.18924 -3.74705,-8.11212 -6.54037,-11.60427 -4.43943,-5.54602 -10.3634,-9.99878 -17.48963,-12.65873 -0.25068,-0.0931 -0.50065,-0.17674 -0.75097,-0.26423 4.30201,3.6576 7.93898,7.84296 10.86724,12.34758 2.62396,4.03613 4.67945,8.33049 6.0976,12.73492 3.11786,9.68516 3.2052,19.87797 -0.234,28.97223 -7.53811,18.2753 -26.421741,26.0417 -45.714766,24.48454 0.03374,0.0116 0.07209,0.0293 0.107942,0.0399 21.346744,7.97314 45.287264,-3.09491 53.468414,-24.72231 3.73497,-9.86508 3.53009,-20.22157 0.18854,-29.32959"
       style="fill:#0000d4;fill-opacity:1;fill-rule:nonzero;stroke:none;stroke-width:0.35392147"
       id="path10552"
       inkscape:connector-curvature="0" />
    <path
       d="m 60.17585,183.4067 c -6.052148,-19.70829 2.884936,-42.30088 19.430791,-55.02134 -4.294202,1.81716 -8.292989,4.35222 -11.8032,7.52087 -4.845625,4.37303 -8.765587,9.93704 -11.239351,16.47225 -7.25335,19.18158 0.329857,40.21102 17.030527,50.28635 C 67.38588,197.81872 62.425212,191.77529 60.17585,183.4067"
       style="fill:#5555ff;fill-opacity:1;fill-rule:nonzero;stroke:none;stroke-width:0.35392147"
       id="path10556"
       inkscape:connector-curvature="0" />
    <path
       d="m 93.385731,194.95929 c 10.672309,-7.89164 15.922709,-19.50791 18.175269,-32.24389 2.77238,-12.86546 2.52206,-26.85556 -5.67507,-36.35516 -8.185755,-2.10715 -16.57568,-1.5547 -24.169183,1.19097 -0.709785,0.25683 -1.411755,0.53799 -2.110175,0.83397 -16.545857,12.72046 -25.482943,35.31306 -19.430792,55.02134 2.249361,8.36859 7.210029,14.41203 13.418765,19.25814 0.206296,0.12629 0.420045,0.24024 0.627406,0.36336 6.761577,-1.03364 13.295202,-3.35598 19.16378,-8.06873"
       style="fill:#2a2aff;fill-opacity:1;fill-rule:nonzero;stroke:none;stroke-width:0.35392147"
       id="path10560"
       inkscape:connector-curvature="0" />
    <path
       d="m 126.24796,152.47317 c -1.41814,-4.40444 -3.47363,-8.69915 -6.09724,-12.73528 -2.92861,-4.50427 -6.56558,-8.68962 -10.86759,-12.34758 -1.12664,-0.39758 -2.25895,-0.73942 -3.3973,-1.03011 8.19712,9.4996 8.44744,23.48971 5.67506,36.35516 -2.25255,12.73598 -7.50296,24.35225 -18.175266,32.24389 -5.868578,4.71276 -12.402203,7.03509 -19.163425,8.06873 1.915597,1.1102 3.936294,2.0955 6.077005,2.90195 19.293026,1.55681 38.176656,-6.20924 45.714766,-24.48454 3.4392,-9.09426 3.35186,-19.28706 0.23399,-28.97222"
       style="fill:#0000ff;fill-opacity:1;fill-rule:nonzero;stroke:none;stroke-width:0.35392147"
       id="path10564"
       inkscape:connector-curvature="0" />
    <path
       d="m 104.82907,192.48469 c -1.31127,-1.78823 -7.482722,-4.40055 -6.565225,-0.51223 0.698776,2.98873 5.152055,4.71099 6.336565,7.35471 0.98247,-2.5654 8.108,-4.06859 6.38165,-8.04404 -1.12912,-2.6035 -5.52452,-0.80257 -5.4567,1.67851 z"
       style="fill:#ffffff;fill-opacity:1;fill-rule:nonzero;stroke:none;stroke-width:0.35392147"
       id="path10574"
       inkscape:connector-curvature="0" />
    <path
       d="m 128.03616,166.2 c -1.3134,-1.78718 -7.48024,-4.40303 -6.56558,-0.50836 0.70126,2.98627 5.15241,4.70747 6.33621,7.35295 0.98389,-2.56681 8.11048,-4.06647 6.38165,-8.0451 -1.12947,-2.60032 -5.52487,-0.80398 -5.45776,1.67817 z"
       style="fill:#ffffff;fill-opacity:1;fill-rule:nonzero;stroke:none;stroke-width:0.35392147"
       id="path10590"
       inkscape:connector-curvature="0" />
    <path
       d="m 112.28569,141.34585 c 0.11398,-2.21016 -3.01808,-8.10295 -4.77709,-4.50356 -1.34785,2.75449 1.01443,6.88022 0.25742,9.67458 2.39317,-1.3769 8.87744,1.91875 10.06124,-2.25284 0.7712,-2.72592 -3.78113,-4.07953 -5.30651,-2.1142 z"
       style="fill:#ffffff;fill-opacity:1;fill-rule:nonzero;stroke:none;stroke-width:0.35392147"
       id="path10606"
       inkscape:connector-curvature="0" />
    <path
       d="m 79.326527,194.92898 c 0.115042,-2.21086 -3.017731,-8.10436 -4.775676,-4.50709 -1.348552,2.75943 1.012657,6.88129 0.257068,9.67529 2.390325,-1.37407 8.876015,1.92122 10.058749,-2.25108 0.774761,-2.72556 -3.781128,-4.08093 -5.305084,-2.11243 z"
       style="fill:#ffffff;fill-opacity:1;fill-rule:nonzero;stroke:none;stroke-width:0.35392147"
       id="path10622"
       inkscape:connector-curvature="0" />
    <path
       d="m 85.813636,136.61834 c 0.117884,-2.20944 -3.014889,-8.10224 -4.7739,-4.50885 -1.349263,2.75978 1.014432,6.88411 0.25707,9.67846 2.392099,-1.37654 8.877788,1.91876 10.057328,-2.25143 0.771918,-2.72697 -3.777934,-4.08164 -5.30118,-2.11243 z"
       style="fill:#ffffff;fill-opacity:1;fill-rule:nonzero;stroke:none;stroke-width:0.35392147"
       id="path10638"
       inkscape:connector-curvature="0" />
    <path
       d="m 95.386259,166.00777 c -1.789902,-1.31763 -8.464134,-1.97344 -6.415384,1.46579 1.569757,2.64089 6.33372,2.96016 8.263163,5.13186 0.1612,-2.74356 6.508412,-6.29709 3.659342,-9.57722 -1.859853,-2.147 -5.509252,0.88019 -4.699695,3.22651 z"
       style="fill:#ffffff;fill-opacity:1;fill-rule:nonzero;stroke:none;stroke-width:0.35392147"
       id="path10654"
       inkscape:connector-curvature="0" />
    <path
       d="m 66.787444,161.7672 c 1.304525,-1.79529 1.886481,-8.43492 -1.551295,-6.35917 -2.639936,1.58961 -2.90553,6.32636 -5.06577,8.2677 2.762793,0.13405 6.410415,6.39551 9.681311,3.52636 2.139647,-1.87536 -0.949099,-5.46382 -3.303206,-4.63373 z"
       style="fill:#ffffff;fill-opacity:1;fill-rule:nonzero;stroke:none;stroke-width:0.35392147"
       id="path10670"
       inkscape:connector-curvature="0" />
    <g
       id="g10678"
       transform="matrix(-0.35506894,0,0,-0.35277777,67.462927,135.51658)">
      <path
         d="m 0,0 c -43.931,38.57 -107.762,40.87 -153.294,3.693 -42.036,-34.32 -52.722,-95.103 -30.92,-143.444 19.554,-43.38 64.926,-70.434 112.077,-69.032 47.462,1.413 88.276,34.347 104.501,78.011 C 49.368,-85.022 35.218,-33.007 0,0 c -0.93,0.871 -2.437,-2.054 -1.676,-2.772 45.82,-42.94 52.438,-114.156 12.04,-163.05 -35.546,-43.041 -98.287,-50.808 -145.535,-23.651 -55.712,32.022 -73.8,105.694 -42.824,160.998 C -141.993,35.819 -54.68,43.767 -1.676,-2.772 -0.715,-3.617 0.771,-0.682 0,0"
         style="fill:#231f20;fill-opacity:1;fill-rule:nonzero;stroke:none"
         id="path10680"
         inkscape:connector-curvature="0" />
    </g>
    <path
       d="m 43.528691,200.89777 c 0.893707,2.0828 3.058214,4.23968 5.153117,3.35104 0.995967,-0.4244 0.234699,-2.3294 -0.419341,-3.85834 -0.221912,-0.0159 -0.43389,-0.0208 -0.622074,-0.006 l 0.525148,-0.22296 c 0.02909,0.0762 0.06351,0.15205 0.09693,0.2286 1.913463,0.12771 4.894266,1.15606 4.761826,-0.44167 0.07137,-1.1744 -0.296127,-1.98226 -0.916435,-2.60245 -1.874407,-0.24412 -3.842201,-0.0162 -4.9067,0.57186 l -5.634589,0.3369 c -0.921758,0.80045 -2.129703,4.96993 -2.14639,7.99783 2.415184,1.09255 4.173129,-2.51672 4.108502,-5.35517"
       style="fill:#80ffb3;fill-opacity:1;fill-rule:nonzero;stroke:none;stroke-width:0.35392147"
       id="path10684"
       inkscape:connector-curvature="0" />
    <path
       d="m 52.107901,197.34625 c 0.620307,0.62018 0.987803,1.42804 0.916435,2.60244 0.132439,1.59773 -2.848363,0.56974 -4.762181,0.44168 0.654386,1.52894 1.415656,3.43394 0.419687,3.85833 -2.094907,0.88865 -4.259404,-1.26824 -5.153121,-3.35104 0.06462,2.83881 -1.693317,6.44772 -4.108502,5.35517 -0.0091,1.55434 0.293293,2.80952 1.108533,3.15136 2.830958,1.18992 4.241299,-4.06329 5.089905,-5.46311 0.426794,7.61894 7.492669,3.36973 5.088143,-0.82621 -0.43212,-0.33196 -0.788964,-0.74789 -1.009816,-1.2386 0.442061,0.40428 0.772275,0.82127 1.009816,1.2386 1.875118,1.42699 5.25147,1.26012 5.9435,-1.38747 0.702325,-2.68217 -1.821149,-4.02661 -4.542399,-4.38115"
       style="fill:#00d455;fill-opacity:1;fill-rule:nonzero;stroke:none;stroke-width:0.35392147"
       id="path10688"
       inkscape:connector-curvature="0" />
    <path
       d="m 45.563773,203.24614 -0.470466,0.77364 c -0.186413,0.30974 -0.39519,0.78211 -0.6338,1.32891 -0.766596,1.74696 -1.920926,4.38574 -3.616376,4.15855 -0.158362,-0.0212 -0.324182,-0.0677 -0.490707,-0.139 -0.615693,-0.25682 -0.948037,-1.28411 -0.937388,-2.89136 0.01741,-2.92135 1.148299,-6.85377 1.987323,-7.7276 l 5.648087,-0.36654 c 1.013721,-0.55844 2.916179,-0.7754 4.734841,-0.53939 h 7.99e-4 c 1.924829,0.25858 3.371734,0.94932 4.015473,1.90147 0.407265,0.60325 0.505619,1.32115 0.293289,2.13466 -0.467983,1.78435 -2.191131,2.20874 -3.523705,2.03024 -0.713334,-0.0967 -1.397908,-0.36689 -1.935126,-0.762 -0.101906,-0.16722 -0.250678,-0.34643 -0.420756,-0.36972 l -0.213753,-0.0275 -0.09374,0.20284 c -0.07314,0.1711 0.01526,0.3429 0.296839,0.56656 0.607879,1.09997 0.569886,2.34457 -0.105456,3.33975 -0.578761,0.8509 -1.487382,1.32821 -2.313979,1.21814 -1.250197,-0.16756 -2.040235,-1.60055 -2.171955,-3.92924 z m -4.794147,6.81143 v 0 c 2.112663,0.28399 3.368538,-2.5855 4.201533,-4.48663 0.06361,-0.14216 0.123919,-0.27763 0.181793,-0.40816 0.42928,2.85362 1.897494,3.37891 2.556496,3.46569 1.037515,0.14041 2.157401,-0.43145 2.855112,-1.45733 0.63877,-0.94156 0.796064,-2.0701 0.4623,-3.14501 0.455908,0.21731 0.95478,0.36619 1.469274,0.43392 1.682319,0.22648 3.616024,-0.44062 4.141525,-2.44052 0.255649,-0.97472 0.128889,-1.84326 -0.372112,-2.58621 -1.002005,-1.48273 -3.16331,-1.97485 -4.362022,-2.13678 -1.939387,-0.25223 -3.945875,-0.0204 -5.068258,0.56974 l -5.666183,0.33866 -0.07106,0.0617 c -1.052068,0.91193 -2.225218,5.20735 -2.243677,8.20667 -0.01137,1.89971 0.419325,3.04729 1.279305,3.40924 0.212692,0.09 0.427156,0.14747 0.635933,0.17498"
       style="fill:#231f20;fill-opacity:1;fill-rule:nonzero;stroke:none;stroke-width:0.35392147"
       id="path10692"
       inkscape:connector-curvature="0" />
    <path
       d="m 49.666481,144.9868 c -2.866471,-1.40583 -5.946335,-2.34598 -9.11462,-2.77637 -5.032393,-0.6858 -10.288479,-0.0829 -15.274351,2.03059 -0.17576,0.0734 -0.34549,0.15346 -0.51876,0.23178 4.02755,-0.22014 7.972366,0.15628 11.711242,1.04422 3.351144,0.79587 6.534334,2.00272 9.44696,3.57646 6.40154,3.46322 11.496425,8.6674 14.229035,15.03327 5.169094,13.09511 -0.707652,26.3264 -11.414046,34.9564 0.02378,-0.0124 0.04971,-0.0212 0.07598,-0.0314 14.938818,-6.3313 21.784899,-23.73524 15.286783,-38.87046 -2.964114,-6.90563 -8.196767,-12.13803 -14.428227,-15.19449"
       style="fill:#00aa44;fill-opacity:1;fill-rule:nonzero;stroke:none;stroke-width:0.35392147"
       id="path10696"
       inkscape:connector-curvature="0" />
    <path
       d="M 27.21632,197.32314 C 14.33868,190.13424 7.7528704,174.13189 9.9720504,159.49231 c -1.31092,3.0353 -2.11586,6.29497 -2.35446,9.64283 -0.32809,4.62033 0.40833,9.40082 2.37079,13.97565 5.7631196,13.4239 20.0837676,20.54366 33.6733186,17.56692 -5.596946,0.54116 -11.143487,-0.14535 -16.445379,-3.35457"
       style="fill:#2aff80;fill-opacity:1;fill-rule:nonzero;stroke:none;stroke-width:0.35392147"
       id="path10700"
       inkscape:connector-curvature="0" />
    <path
       d="m 50.03817,187.03713 c 1.585384,-9.28299 -1.464303,-17.82974 -6.610672,-25.48961 -4.943983,-7.98053 -12.001685,-15.06184 -20.927758,-15.9452 -5.25929,2.91748 -9.30458,7.30285 -11.85505,12.42801 -0.2379,0.48084 -0.46052,0.96838 -0.6728496,1.46191 -2.21918,14.63957 4.3669896,30.64193 17.2446296,37.83083 5.301531,3.20922 10.848423,3.89608 16.44537,3.35456 0.168658,-0.0346 0.334831,-0.0797 0.502422,-0.11853 2.97087,-3.83822 5.186141,-8.22783 5.873908,-13.52197"
       style="fill:#00ff66;fill-opacity:1;fill-rule:nonzero;stroke:none;stroke-width:0.35392147"
       id="path10704"
       inkscape:connector-curvature="0" />
    <path
       d="m 45.917103,149.09338 c -2.912636,-1.57374 -6.095826,-2.78024 -9.44697,-3.57611 -3.739228,-0.88794 -7.683693,-1.26471 -11.711593,-1.04458 -0.77512,0.34467 -1.52892,0.72355 -2.25859,1.1296 8.925722,0.88335 15.983776,7.96466 20.927759,15.9452 5.146014,7.66022 8.196058,16.20661 6.61032,25.48961 -0.687413,5.29413 -2.902685,9.68375 -5.873908,13.52197 1.537099,-0.36513 3.066377,-0.84596 4.56761,-1.47602 10.706748,-8.62965 16.583494,-21.86129 11.414046,-34.95605 -2.732256,-6.36623 -7.827495,-11.5704 -14.228674,-15.03362"
       style="fill:#00d455;fill-opacity:1;fill-rule:nonzero;stroke:none;stroke-width:0.35392147"
       id="path10708"
       inkscape:connector-curvature="0" />
    <path
       d="m 54.703669,180.16848 c -1.560882,-0.28046 -6.033331,1.39065 -3.63342,2.94534 1.839612,1.19591 4.984813,-0.0921 6.904316,0.68932 -0.764819,-1.80304 2.161659,-6.05895 -0.697357,-7.26369 -1.870145,-0.78775 -3.243197,2.28847 -1.980218,3.53307 z"
       style="fill:#ffffff;fill-opacity:1;fill-rule:nonzero;stroke:none;stroke-width:0.35392147"
       id="path10718"
       inkscape:connector-curvature="0" />
    <path
       d="m 53.634628,155.28851 c -1.559817,-0.2787 -6.031204,1.38923 -3.631291,2.94746 1.840323,1.19521 4.983749,-0.0945 6.905382,0.68862 -0.766238,-1.80235 2.160951,-6.05931 -0.699841,-7.26335 -1.869438,-0.78598 -3.242489,2.28706 -1.979154,3.53343 z"
       style="fill:#ffffff;fill-opacity:1;fill-rule:nonzero;stroke:none;stroke-width:0.35392147"
       id="path10734"
       inkscape:connector-curvature="0" />
    <path
       d="m 33.216458,150.19013 c -1.036096,-1.1938 -5.566768,-2.69522 -4.688688,0.0155 0.6693,2.07857 3.929197,3.04871 4.923745,4.8574 0.547865,-1.87995 5.519546,-3.3528 4.06341,-6.07836 -0.95301,-1.78188 -3.967542,-0.25224 -3.779005,1.50424 z"
       style="fill:#ffffff;fill-opacity:1;fill-rule:nonzero;stroke:none;stroke-width:0.35392147"
       id="path10750"
       inkscape:connector-curvature="0" />
    <path
       d="m 42.780421,193.89442 c -1.03219,-1.19732 -5.564647,-2.69734 -4.688684,0.012 0.672147,2.07963 3.929184,3.04835 4.923027,4.85704 0.551067,-1.87783 5.523097,-3.34962 4.064125,-6.07659 -0.950523,-1.78082 -3.967903,-0.25224 -3.775804,1.50459 z"
       style="fill:#ffffff;fill-opacity:1;fill-rule:nonzero;stroke:none;stroke-width:0.35392147"
       id="path10766"
       inkscape:connector-curvature="0" />
    <path
       d="m 17.24528,160.69698 c -1.03396,-1.19451 -5.56535,-2.69805 -4.69082,0.0134 0.67285,2.07963 3.93061,3.048 4.92516,4.85775 0.55001,-1.87889 5.52097,-3.35174 4.06448,-6.07695 -0.95336,-1.78188 -3.96861,-0.254 -3.77722,1.5046 z"
       style="fill:#ffffff;fill-opacity:1;fill-rule:nonzero;stroke:none;stroke-width:0.35392147"
       id="path10782"
       inkscape:connector-curvature="0" />
    <path
       d="m 36.729507,171.14971 c -1.574732,0.19721 -5.33562,3.12138 -2.578157,3.89114 2.115501,0.59196 4.729166,-1.57092 6.795671,-1.3977 -1.276477,-1.49014 0.233275,-6.42479 -2.857599,-6.72042 -2.019985,-0.19473 -2.40204,3.14854 -0.823051,3.96064 z"
       style="fill:#ffffff;fill-opacity:1;fill-rule:nonzero;stroke:none;stroke-width:0.35392147"
       id="path10798"
       inkscape:connector-curvature="0" />
    <path
       d="m 19.90343,182.94815 c -0.21765,-1.56351 -3.20663,-5.26485 -3.94801,-2.5153 -0.57273,2.10855 1.63652,4.67642 1.48525,6.73311 1.48846,-1.28305 6.469,0.1584 6.73069,-2.91782 0.17398,-2.01154 -3.19385,-2.35021 -3.99452,-0.77117 z"
       style="fill:#ffffff;fill-opacity:1;fill-rule:nonzero;stroke:none;stroke-width:0.35392147"
       id="path10814"
       inkscape:connector-curvature="0" />
  </g>
</svg>
