<?xml version="1.0" encoding="UTF-8" standalone="no"?>
<!-- Created with Inkscape (http://www.inkscape.org/) -->

<svg
   xmlns:dc="http://purl.org/dc/elements/1.1/"
   xmlns:cc="http://creativecommons.org/ns#"
   xmlns:rdf="http://www.w3.org/1999/02/22-rdf-syntax-ns#"
   xmlns:svg="http://www.w3.org/2000/svg"
   xmlns="http://www.w3.org/2000/svg"
   xmlns:sodipodi="http://sodipodi.sourceforge.net/DTD/sodipodi-0.dtd"
   xmlns:inkscape="http://www.inkscape.org/namespaces/inkscape"
   width="143mm"
   height="193mm"
   viewBox="0 0 143 193"
   version="1.1"
   id="svg18055"
   inkscape:version="0.92.5 (2060ec1f9f, 2020-04-08)"
   sodipodi:docname="balloons-baby.svg">
  <defs
     id="defs18049">
    <clipPath
       clipPathUnits="userSpaceOnUse"
       id="clipPath10812">
      <path
         d="m 534.763,720.77 h 23.424 v -21.885 h -23.424 z"
         id="path10810"
         inkscape:connector-curvature="0" />
    </clipPath>
    <clipPath
       clipPathUnits="userSpaceOnUse"
       id="clipPath10796">
      <path
         d="m 487.535,756.291 h 21.904 v -23.328 h -21.904 z"
         id="path10794"
         inkscape:connector-curvature="0" />
    </clipPath>
    <clipPath
       clipPathUnits="userSpaceOnUse"
       id="clipPath10780">
      <path
         d="m 541.431,779.586 h 26.381 v -19.479 h -26.381 z"
         id="path10778"
         inkscape:connector-curvature="0" />
    </clipPath>
    <clipPath
       clipPathUnits="userSpaceOnUse"
       id="clipPath10764">
      <path
         d="m 469.513,685.486 h 26.378 V 666.01 h -26.378 z"
         id="path10762"
         inkscape:connector-curvature="0" />
    </clipPath>
    <clipPath
       clipPathUnits="userSpaceOnUse"
       id="clipPath10748">
      <path
         d="m 496.452,809.368 h 26.376 v -19.482 h -26.376 z"
         id="path10746"
         inkscape:connector-curvature="0" />
    </clipPath>
    <clipPath
       clipPathUnits="userSpaceOnUse"
       id="clipPath10732">
      <path
         d="m 440.937,799.888 h 23.046 v -20.949 h -23.046 z"
         id="path10730"
         inkscape:connector-curvature="0" />
    </clipPath>
    <clipPath
       clipPathUnits="userSpaceOnUse"
       id="clipPath10716">
      <path
         d="m 437.932,729.368 h 23.046 v -20.951 h -23.046 z"
         id="path10714"
         inkscape:connector-curvature="0" />
    </clipPath>
    <clipPath
       clipPathUnits="userSpaceOnUse"
       id="clipPath10668">
      <path
         d="m 404.102,790.035 h 29.293 v -36.69 h -29.293 z"
         id="path10666"
         inkscape:connector-curvature="0" />
    </clipPath>
    <clipPath
       clipPathUnits="userSpaceOnUse"
       id="clipPath10652">
      <path
         d="m 316.636,769.384 h 36.736 v -29.225 h -36.736 z"
         id="path10650"
         inkscape:connector-curvature="0" />
    </clipPath>
    <clipPath
       clipPathUnits="userSpaceOnUse"
       id="clipPath10636">
      <path
         d="m 345.324,858.167 h 30.492 v -30.651 h -30.492 z"
         id="path10634"
         inkscape:connector-curvature="0" />
    </clipPath>
    <clipPath
       clipPathUnits="userSpaceOnUse"
       id="clipPath10620">
      <path
         d="m 363.594,692.878 h 30.497 v -30.649 h -30.497 z"
         id="path10618"
         inkscape:connector-curvature="0" />
    </clipPath>
    <clipPath
       clipPathUnits="userSpaceOnUse"
       id="clipPath10604">
      <path
         d="m 270.767,844.76 h 30.501 v -30.649 h -30.501 z"
         id="path10602"
         inkscape:connector-curvature="0" />
    </clipPath>
    <clipPath
       clipPathUnits="userSpaceOnUse"
       id="clipPath10588">
      <path
         d="m 224.176,765.489 h 36.835 v -26.575 h -36.835 z"
         id="path10586"
         inkscape:connector-curvature="0" />
    </clipPath>
    <clipPath
       clipPathUnits="userSpaceOnUse"
       id="clipPath10572">
      <path
         d="m 289.535,690.982 h 36.836 v -26.57 h -36.836 z"
         id="path10570"
         inkscape:connector-curvature="0" />
    </clipPath>
    <clipPath
       clipPathUnits="userSpaceOnUse"
       id="clipPath10524">
      <path
         d="m 487.159,786.321 h 27.812 v -27.1 h -27.812 z"
         id="path10522"
         inkscape:connector-curvature="0" />
    </clipPath>
    <clipPath
       clipPathUnits="userSpaceOnUse"
       id="clipPath10508">
      <path
         d="m 425.375,822.358 h 27.093 v -27.676 h -27.093 z"
         id="path10506"
         inkscape:connector-curvature="0" />
    </clipPath>
    <clipPath
       clipPathUnits="userSpaceOnUse"
       id="clipPath10492">
      <path
         d="m 486.75,858.064 h 32.33 v -23.656 h -32.33 z"
         id="path10490"
         inkscape:connector-curvature="0" />
    </clipPath>
    <clipPath
       clipPathUnits="userSpaceOnUse"
       id="clipPath10476">
      <path
         d="m 410.491,733.245 h 32.325 v -23.653 h -32.325 z"
         id="path10474"
         inkscape:connector-curvature="0" />
    </clipPath>
    <clipPath
       clipPathUnits="userSpaceOnUse"
       id="clipPath10460">
      <path
         d="m 427.678,888.866 h 32.325 V 865.21 h -32.325 z"
         id="path10458"
         inkscape:connector-curvature="0" />
    </clipPath>
    <clipPath
       clipPathUnits="userSpaceOnUse"
       id="clipPath10444">
      <path
         d="m 360.833,869.51 h 29.672 v -26.225 h -29.672 z"
         id="path10442"
         inkscape:connector-curvature="0" />
    </clipPath>
    <clipPath
       clipPathUnits="userSpaceOnUse"
       id="clipPath10428">
      <path
         d="M 366.195,782.502 H 395.87 V 756.274 H 366.195 Z"
         id="path10426"
         inkscape:connector-curvature="0" />
    </clipPath>
  </defs>
  <sodipodi:namedview
     id="base"
     pagecolor="#ffffff"
     bordercolor="#666666"
     borderopacity="1.0"
     inkscape:pageopacity="0.0"
     inkscape:pageshadow="2"
     inkscape:zoom="0.49497475"
     inkscape:cx="160.15907"
     inkscape:cy="411.88346"
     inkscape:document-units="mm"
     inkscape:current-layer="layer1"
     showgrid="false"
     inkscape:window-width="1312"
     inkscape:window-height="704"
     inkscape:window-x="0"
     inkscape:window-y="27"
     inkscape:window-maximized="1" />
  <metadata
     id="metadata18052">
    <rdf:RDF>
      <cc:Work
         rdf:about="">
        <dc:format>image/svg+xml</dc:format>
        <dc:type
           rdf:resource="http://purl.org/dc/dcmitype/StillImage" />
        <dc:title></dc:title>
      </cc:Work>
    </rdf:RDF>
  </metadata>
  <g
     id="g23917"
     inkscape:groupmode="layer"
     inkscape:label="Capa 1 copia"
     transform="translate(0,-104)" />
  <g
     inkscape:label="Capa 1"
     inkscape:groupmode="layer"
     id="layer1"
     transform="translate(0,-104)">
    <path
       d="m 74.591579,183.94343 c 3.172173,8.49348 5.941133,17.17146 7.578373,26.10273 0.83467,4.55295 1.29116,9.20714 0.98143,13.83453 -0.33232,4.97699 -2.40101,9.29005 -5.04402,13.45001 -2.511423,3.95428 -5.401033,7.64222 -7.643643,11.76725 -2.4578,4.52014 -3.06211,9.17469 -3.15418,14.25505 -0.10725,5.92948 -0.17004,11.68294 -4.03437,16.5107 -1.32186,1.65241 -2.49908,3.18417 -3.21663,5.19254 -0.87383,2.44828 -0.92957,5.16078 -1.49648,7.68597 -0.0811,0.36265 0.96026,0.19297 1.03505,-0.14041 0.50835,-2.26342 0.72566,-4.57588 1.25236,-6.83577 0.59549,-2.55482 2.22356,-4.44571 3.81388,-6.43291 3.00496,-3.75496 3.55494,-8.64305 3.63996,-13.30466 0.11642,-6.40327 0.40464,-11.93129 3.51155,-17.64594 2.36679,-4.35222 5.526623,-8.22854 8.124123,-12.43965 4.9082,-7.95585 4.88139,-16.38582 3.40995,-25.36331 -1.50918,-9.21067 -4.46123,-18.19098 -7.719833,-26.91447 -0.12771,-0.3429 -1.15394,-0.0339 -1.03752,0.27834"
       style="fill:#231f20;fill-opacity:1;fill-rule:nonzero;stroke:none;stroke-width:0.35277775"
       id="path10372"
       inkscape:connector-curvature="0" />
    <path
       d="m 63.692509,192.79459 c 3.70275,7.82461 6.51157,16.38018 5.34176,25.13506 -0.52423,3.92783 -1.97591,7.68632 -2.51213,11.63743 -0.47096,3.47592 -0.41028,6.99947 -0.22966,10.49338 0.2226,4.30071 0.73836,8.56226 0.54257,12.87603 -0.19685,4.33317 -1.07738,8.61942 -2.09162,12.82453 -1.99637,8.28146 -4.74803,16.34561 -5.82365,24.82885 -0.0519,0.4064 0.99307,0.21344 1.03681,-0.13299 1.07491,-8.47302 3.77049,-16.57033 5.82401,-24.82886 1.0481,-4.21534 1.81116,-8.48677 2.09127,-12.82417 0.26211,-4.064 -0.23319,-8.12906 -0.49283,-12.18001 -0.23848,-3.73874 -0.25577,-7.46548 0.18026,-11.18905 0.49954,-4.27002 2.06552,-8.2931 2.63208,-12.53666 1.11795,-8.36824 -1.94134,-16.94286 -5.46135,-24.38188 -0.16793,-0.35454 -1.1811,-0.0247 -1.03752,0.27834"
       style="fill:#231f20;fill-opacity:1;fill-rule:nonzero;stroke:none;stroke-width:0.35277775"
       id="path10376"
       inkscape:connector-curvature="0" />
    <path
       d="m 96.229172,205.4658 c -0.4057,9.01171 -1.25907,17.89359 -4.2792,26.44352 -2.7947,7.91174 -10.00231,13.2147 -14.11358,20.35174 -2.189343,3.79977 -2.685343,7.86095 -2.758013,12.17966 -0.0787,4.66266 -0.31715,8.95597 -3.19511,12.82347 -4.03331,5.42255 -11.15801,8.32732 -13.32371,15.10947 -0.12312,0.38594 0.92322,0.24518 1.03998,-0.12065 2.16148,-6.76945 9.59838,-10.03476 13.66803,-15.50494 2.49978,-3.36021 2.763663,-7.43937 2.837743,-11.48785 0.0963,-5.26697 0.68404,-9.69998 3.48439,-14.27868 3.94194,-6.44349 10.287,-11.27196 13.10322,-18.43687 3.40325,-8.65823 4.16102,-17.98638 4.57623,-27.20093 0.0204,-0.44979 -1.0234,-0.24553 -1.03998,0.12206"
       style="fill:#231f20;fill-opacity:1;fill-rule:nonzero;stroke:none;stroke-width:0.35277775"
       id="path10380"
       inkscape:connector-curvature="0" />
    <path
       d="m 67.294329,115.50902 c 3.31752,-2.09197 6.95713,-3.63961 10.767133,-4.57235 6.05332,-1.48449 12.54372,-1.41429 18.90113,0.54539 0.2226,0.0684 0.44132,0.145 0.66252,0.21873 -4.94136,0.24341 -9.70915,1.21073 -14.15838,2.77565 -3.98675,1.40512 -7.717373,3.29389 -11.068413,5.6 -7.36882,5.068 -12.91837,12.11298 -15.43473,20.27944 -4.62809,16.74389 4.24321,32.24564 18.41711,41.48101 -0.0307,-0.013 -0.0635,-0.019 -0.0967,-0.0282 -19.04506,-5.87199 -29.63297,-26.37648 -23.6481,-45.79619 2.7312,-8.85932 8.44726,-15.95509 15.65839,-20.50346"
       style="fill:#d4bd94;fill-opacity:1;fill-rule:nonzero;stroke:none;stroke-width:0.35277775"
       id="path10408"
       inkscape:connector-curvature="0" />
    <path
       d="m 72.240629,167.20685 c -3.12702,-11.19858 -0.50482,-22.08601 4.793903,-32.15252 5.01015,-10.432 12.7134,-20.03179 23.493588,-22.25429 6.79203,2.91183 12.29289,7.78404 16.06302,13.75375 0.35208,0.55845 0.68651,1.1303 1.00895,1.70921 4.58787,17.69922 -1.39665,38.19455 -16.18862,48.66781 -6.057898,4.61927 -12.738798,6.16973 -19.639138,6.21912 -0.21131,-0.0226 -0.41804,-0.055 -0.63006,-0.0829 -4.11797,-4.33599 -7.381523,-9.44457 -8.901643,-15.86018"
       style="fill:#f7e8ba;fill-opacity:1;fill-rule:nonzero;stroke:none;stroke-width:0.35277775"
       id="path10416"
       inkscape:connector-curvature="0" />
    <path
       d="m 72.398249,120.07637 c 3.35104,-2.30611 7.082013,-4.19488 11.068403,-5.6 4.44924,-1.56492 9.21703,-2.53224 14.15839,-2.77565 0.99201,0.3249 1.95897,0.6932 2.903008,1.09925 -10.780188,2.2225 -18.483438,11.82229 -23.493238,22.25464 -5.298723,10.06617 -7.921273,20.95359 -4.794253,32.15217 1.52012,6.41561 4.783673,11.52418 8.901643,15.86053 -1.92123,-0.25224 -3.84845,-0.64841 -5.761213,-1.23049 -14.17426,-9.23537 -23.04556,-24.73712 -18.41712,-41.48102 2.51601,-8.16645 8.06556,-15.21143 15.43438,-20.27943"
       style="fill:#e1d3a2;fill-opacity:1;fill-rule:nonzero;stroke:none;stroke-width:0.35277775"
       id="path10420"
       inkscape:connector-curvature="0" />
    <path
       d="m 88.040032,119.80198 c 1.10878,-1.59703 6.44666,-4.02132 5.72347,-0.57891 -0.55175,2.63878 -4.40479,4.24533 -5.38374,6.59447 -0.91335,-2.23837 -7.16986,-3.41383 -5.74182,-6.94901 0.93204,-2.30858 4.80907,-0.81492 4.80272,1.36701 z"
       style="fill:#ffffff;fill-opacity:1;fill-rule:nonzero;stroke:none;stroke-width:0.35277775"
       id="path10462"
       inkscape:connector-curvature="0" />
    <path
       d="m 108.87628,130.67075 c 1.10984,-1.5995 6.44772,-4.02414 5.72911,-0.58173 -0.55315,2.64019 -4.4069,4.24498 -5.38656,6.59483 -0.91369,-2.23626 -7.1702,-3.41242 -5.74146,-6.9462 0.93345,-2.30964 4.81083,-0.81704 4.80272,1.36561 z"
       style="fill:#ffffff;fill-opacity:1;fill-rule:nonzero;stroke:none;stroke-width:0.35277775"
       id="path10494"
       inkscape:connector-curvature="0" />
    <path
       d="m 122.15509,139.71792 c -3.45758,-17.80612 -18.68629,-30.49236 -36.917838,-30.01541 -16.833853,0.44062 -30.998233,13.32618 -34.828343,29.33102 -3.43747,14.35911 2.55869,29.61462 14.39862,38.22416 11.914013,8.66599 28.184123,8.33226 40.456201,0.70097 12.86122,-8.00029 19.2652,-23.45301 16.89136,-38.24074 -0.0635,-0.38877 -0.98955,0.0416 -0.93769,0.3623 3.09104,19.23944 -8.80921,37.97228 -28.007018,42.30192 -16.90018,3.81071 -33.768243,-6.19654 -40.206443,-21.83411 -7.59284,-18.43722 1.95898,-39.95174 20.06318,-47.643 21.043543,-8.94009 43.980801,5.68854 48.150281,27.17519 0.0759,0.39017 0.99695,-0.0469 0.93769,-0.3623"
       style="fill:#231f20;fill-opacity:1;fill-rule:nonzero;stroke:none;stroke-width:0.35277775"
       id="path10536"
       inkscape:connector-curvature="0" />
    <path
       d="m 71.453269,200.08354 c 1.11865,2.97674 1.02764,7.25382 -1.94734,8.36824 -1.41569,0.52988 -2.49484,-2.13712 -3.31999,-4.31729 0.2099,-0.23213 0.41875,-0.44274 0.6223,-0.60713 l -0.74401,0.28081 c 0.0399,0.10513 0.0811,0.21484 0.12171,0.32632 -1.80587,1.97309 -3.81282,5.88786 -5.23099,4.1402 -1.21073,-1.12395 -1.62454,-2.29835 -1.6009,-3.52531 1.65664,-2.05422 3.8615,-3.72075 5.5058,-4.14902 l 6.00675,-5.08741 c 1.70956,-0.0765 6.969833,2.9905 9.924343,6.04908 -1.37619,3.43606 -6.649513,1.46721 -9.337673,-1.47849"
       style="fill:#c0e5e7;fill-opacity:1;fill-rule:nonzero;stroke:none;stroke-width:0.35277775"
       id="path10540"
       inkscape:connector-curvature="0" />
    <path
       d="m 59.353909,204.74942 c -0.0233,1.22696 0.39017,2.40136 1.6009,3.52531 1.41817,1.74765 3.42512,-2.16712 5.23099,-4.1402 0.82515,2.18016 1.90429,4.84716 3.32034,4.31729 2.97463,-1.11443 3.06564,-5.39186 1.94698,-8.36824 2.68817,2.94569 7.961493,4.91455 9.337683,1.47849 1.51694,1.56845 2.43064,3.13584 1.93851,4.2672 -1.70144,3.93417 -8.217253,-0.0367 -10.432693,-0.63923 6.960303,8.14457 -4.28766,10.64224 -5.93408,4.06364 0.11642,-0.75247 0.0716,-1.51906 -0.17956,-2.22885 -0.0564,0.83432 0.0187,1.57516 0.17956,2.22885 -0.50659,3.25614 -4.07176,6.34083 -7.33813,4.32082 -3.31223,-2.04505 -2.06834,-5.84376 0.3295,-8.82508"
       style="fill:#4ec3c7;fill-opacity:1;fill-rule:nonzero;stroke:none;stroke-width:0.35277775"
       id="path10544"
       inkscape:connector-curvature="0" />
    <path
       d="m 71.679429,204.43107 1.22167,0.33126 c 0.49107,0.1337 1.15958,0.41381 1.93428,0.73907 2.463803,1.03434 6.188433,2.59891 7.676453,0.73554 0.1404,-0.17463 0.26176,-0.38241 0.36124,-0.61348 0.37183,-0.85514 -0.28893,-2.21721 -1.85914,-3.83999 -2.8508,-2.94922 -7.805213,-5.85082 -9.500303,-5.92843 l -6.05226,5.07224 c -1.56563,0.40887 -3.69253,2.02318 -5.29872,4.01391 v 0.003 c -1.69051,2.11631 -2.48109,4.21216 -2.20592,5.79896 0.17427,1.00506 0.77082,1.82739 1.77553,2.44933 2.20168,1.36032 4.35363,0.13124 5.52344,-1.33491 0.62442,-0.78493 1.05304,-1.72014 1.21179,-2.63948 -0.0586,-0.26705 -0.0829,-0.59232 0.0684,-0.77893 l 0.18697,-0.23601 0.29175,0.11536 c 0.23918,0.10618 0.31609,0.36512 0.24906,0.86219 0.45438,1.70215 1.69933,2.93052 3.34716,3.2893 1.40864,0.30621 2.7873,-0.084 3.51402,-0.99413 1.09678,-1.37372 0.50553,-3.59093 -1.62243,-6.08189 z m 11.445173,2.29305 v 0 c -1.85843,2.32552 -5.91008,0.62442 -8.593313,-0.5027 -0.20356,-0.0829 -0.39335,-0.16581 -0.57926,-0.24166 2.335743,3.31259 1.36419,5.25956 0.78634,5.98487 -0.91158,1.14018 -2.59609,1.63936 -4.29331,1.26965 -1.55963,-0.33902 -2.81269,-1.33174 -3.51931,-2.74531 -0.24977,0.65757 -0.60995,1.29187 -1.05974,1.85561 -1.47885,1.85314 -4.07635,3.03812 -6.54474,1.51376 -1.20191,-0.74259 -1.92158,-1.74801 -2.13607,-2.98238 -0.42721,-2.47296 1.27529,-5.0553 2.32904,-6.37292 1.71098,-2.12831 3.95676,-3.82694 5.6635,-4.30848 l 6.04061,-5.11704 0.13406,-0.004 c 1.94592,-0.0892 7.296853,3.13937 10.222443,6.16726 1.85596,1.91629 2.53471,3.49709 2.01824,4.69406 -0.12841,0.29457 -0.28751,0.56127 -0.46849,0.78917"
       style="fill:#231f20;fill-opacity:1;fill-rule:nonzero;stroke:none;stroke-width:0.35277775"
       id="path10548"
       inkscape:connector-curvature="0" />
    <path
       d="m 11.026809,149.24514 c 1.52788,-4.18924 3.72286,-8.11213 6.49817,-11.60428 4.41078,-5.54602 10.29652,-9.99879 17.37677,-12.65873 0.24906,-0.0931 0.49742,-0.17674 0.74612,-0.26423 -4.27425,3.6576 -7.88775,7.84296 -10.79711,12.34758 -2.60703,4.03613 -4.64926,8.3305 -6.05825,12.73493 -3.09775,9.68516 -3.18453,19.87796 0.23248,28.97222 7.48947,18.27529 26.25125,26.0417 45.41978,24.48453 -0.0335,0.0116 -0.0716,0.0293 -0.10724,0.0399 -21.209,7.97314 -44.99504,-3.09491 -53.1234,-24.7223 -3.7108696,-9.86508 -3.5073096,-20.22157 -0.18732,-29.32958"
       style="fill:#4ec3c7;fill-opacity:1;fill-rule:nonzero;stroke:none;stroke-width:0.35277775"
       id="path10552"
       inkscape:connector-curvature="0" />
    <path
       d="m 84.438342,180.734 c 6.0131,-19.70827 -2.86632,-42.30087 -19.305413,-55.02134 4.2665,1.81716 8.23948,4.35223 11.727043,7.52088 4.81436,4.37304 8.70903,9.93705 11.16683,16.47225 7.20654,19.18158 -0.32773,40.21101 -16.920643,50.28635 6.168683,-4.84611 11.097343,-10.88955 13.332183,-19.25814"
       style="fill:#d4eded;fill-opacity:1;fill-rule:nonzero;stroke:none;stroke-width:0.35277775"
       id="path10556"
       inkscape:connector-curvature="0" />
    <path
       d="m 51.442759,192.28659 c -10.60344,-7.89164 -15.81997,-19.50791 -18.05799,-32.24388 -2.75449,-12.86545 -2.50578,-26.85556 5.63845,-36.35517 8.13293,-2.10714 16.46872,-1.55469 24.01322,1.19098 0.70521,0.25682 1.40265,0.53798 2.09656,0.83397 16.439093,12.72047 25.318513,35.31306 19.305413,55.02133 -2.23484,8.3686 -7.1635,14.41203 -13.332173,19.25814 -0.20497,0.1263 -0.41734,0.24024 -0.62336,0.36336 -6.71795,-1.03364 -13.20941,-3.35597 -19.04012,-8.06873"
       style="fill:#acdee0;fill-opacity:1;fill-rule:nonzero;stroke:none;stroke-width:0.35277775"
       id="path10560"
       inkscape:connector-curvature="0" />
    <path
       d="m 18.792579,149.80048 c 1.40899,-4.40443 3.45122,-8.69915 6.0579,-12.73528 2.90971,-4.50426 6.52321,-8.68963 10.79746,-12.34758 1.11937,-0.39758 2.24438,-0.73942 3.37538,-1.03011 -8.14423,9.49961 -8.39293,23.48971 -5.63844,36.35517 2.23802,12.73597 7.45454,24.35224 18.05798,32.24388 5.83071,4.71275 12.32218,7.03509 19.03977,8.06873 -1.90323,1.11019 -3.91089,2.0955 -6.03779,2.90195 -19.16853,1.55681 -37.93031,-6.20924 -45.41978,-24.48454 -3.41701,-9.09426 -3.33023,-19.28706 -0.23248,-28.97222"
       style="fill:#81d0d3;fill-opacity:1;fill-rule:nonzero;stroke:none;stroke-width:0.35277775"
       id="path10564"
       inkscape:connector-curvature="0" />
    <path
       d="m 40.073259,189.81199 c 1.30281,-1.78823 7.43444,-4.40055 6.52286,-0.51223 -0.69427,2.98873 -5.11881,4.71099 -6.29567,7.35471 -0.97614,-2.5654 -8.05568,-4.06858 -6.34048,-8.04404 1.12184,-2.6035 5.48887,-0.80257 5.42149,1.67852 z"
       style="fill:#ffffff;fill-opacity:1;fill-rule:nonzero;stroke:none;stroke-width:0.35277775"
       id="path10574"
       inkscape:connector-curvature="0" />
    <path
       d="m 17.015919,163.52731 c 1.30492,-1.78717 7.43197,-4.40302 6.52321,-0.50836 -0.69674,2.98627 -5.11916,4.70746 -6.29532,7.35294 -0.97755,-2.56681 -8.0581496,-4.06646 -6.34047,-8.04509 1.12218,-2.60032 5.48922,-0.80397 5.42254,1.67817 z"
       style="fill:#ffffff;fill-opacity:1;fill-rule:nonzero;stroke:none;stroke-width:0.35277775"
       id="path10590"
       inkscape:connector-curvature="0" />
    <path
       d="m 32.664749,138.67316 c -0.11324,-2.21015 2.99861,-8.10295 4.74627,-4.50356 1.33915,2.75449 -1.00788,6.88023 -0.25576,9.67458 -2.37772,-1.37689 -8.82015,1.91876 -9.99631,-2.25284 -0.76623,-2.72591 3.75673,-4.07952 5.27226,-2.1142 z"
       style="fill:#ffffff;fill-opacity:1;fill-rule:nonzero;stroke:none;stroke-width:0.35277775"
       id="path10606"
       inkscape:connector-curvature="0" />
    <path
       d="m 65.411239,192.25629 c -0.1143,-2.21086 2.99826,-8.10437 4.74486,-4.50709 1.33985,2.75942 -1.00612,6.88128 -0.25541,9.67528 -2.3749,-1.37407 -8.81874,1.92123 -9.99384,-2.25107 -0.76976,-2.72556 3.75673,-4.08094 5.27085,-2.11244 z"
       style="fill:#ffffff;fill-opacity:1;fill-rule:nonzero;stroke:none;stroke-width:0.35277775"
       id="path10622"
       inkscape:connector-curvature="0" />
    <path
       d="m 58.965989,133.94566 c -0.11712,-2.20945 2.99544,-8.10226 4.7431,-4.50886 1.34055,2.75979 -1.00789,6.88411 -0.25541,9.67846 -2.37667,-1.37653 -8.82051,1.91876 -9.99243,-2.25142 -0.76694,-2.72698 3.75355,-4.08164 5.26697,-2.11244 z"
       style="fill:#ffffff;fill-opacity:1;fill-rule:nonzero;stroke:none;stroke-width:0.35277775"
       id="path10638"
       inkscape:connector-curvature="0" />
    <path
       d="m 49.455139,163.33508 c 1.77835,-1.31762 8.40952,-1.97344 6.37399,1.46579 -1.55963,2.64089 -6.29285,2.96015 -8.20985,5.13185 -0.16016,-2.74354 -6.46641,-6.29707 -3.63572,-9.5772 1.84785,-2.147 5.4737,0.88018 4.66936,3.22651 z"
       style="fill:#ffffff;fill-opacity:1;fill-rule:nonzero;stroke:none;stroke-width:0.35277775"
       id="path10654"
       inkscape:connector-curvature="0" />
    <path
       d="m 77.869412,159.09451 c -1.2961,-1.79528 -1.87431,-8.43491 1.54129,-6.35917 2.6229,1.58962 2.88678,6.32637 5.03308,8.2677 -2.74497,0.13406 -6.36905,6.3955 -9.618843,3.52637 -2.12584,-1.87537 0.94297,-5.46382 3.281893,-4.63374 z"
       style="fill:#ffffff;fill-opacity:1;fill-rule:nonzero;stroke:none;stroke-width:0.35277775"
       id="path10670"
       inkscape:connector-curvature="0" />
    <g
       id="g10678"
       transform="matrix(0.35277777,0,0,-0.35277777,77.198292,132.8439)">
      <path
         d="m 0,0 c -43.931,38.57 -107.762,40.87 -153.294,3.693 -42.036,-34.32 -52.722,-95.103 -30.92,-143.444 19.554,-43.38 64.926,-70.434 112.077,-69.032 47.462,1.413 88.276,34.347 104.501,78.011 C 49.368,-85.022 35.218,-33.007 0,0 c -0.93,0.871 -2.437,-2.054 -1.676,-2.772 45.82,-42.94 52.438,-114.156 12.04,-163.05 -35.546,-43.041 -98.287,-50.808 -145.535,-23.651 -55.712,32.022 -73.8,105.694 -42.824,160.998 C -141.993,35.819 -54.68,43.767 -1.676,-2.772 -0.715,-3.617 0.771,-0.682 0,0"
         style="fill:#231f20;fill-opacity:1;fill-rule:nonzero;stroke:none"
         id="path10680"
         inkscape:connector-curvature="0" />
    </g>
    <path
       d="m 100.97808,198.22508 c -0.88794,2.0828 -3.038468,4.23968 -5.119858,3.35103 -0.98954,-0.42439 -0.23319,-2.32939 0.41663,-3.85833 0.22049,-0.0159 0.43109,-0.0208 0.61807,-0.006 l -0.52176,-0.22296 c -0.0289,0.0762 -0.0632,0.15205 -0.0963,0.2286 -1.90112,0.12771 -4.86269,1.15606 -4.73111,-0.44167 -0.0709,-1.1744 0.29422,-1.98226 0.91053,-2.60245 1.86231,-0.24412 3.8174,-0.0162 4.87503,0.57186 l 5.598238,0.3369 c 0.9158,0.80045 2.11595,4.96993 2.13253,7.99783 -2.39958,1.09255 -4.14619,-2.51672 -4.08199,-5.35517"
       style="fill:#ea9053;fill-opacity:1;fill-rule:nonzero;stroke:none;stroke-width:0.35277775"
       id="path10684"
       inkscape:connector-curvature="0" />
    <path
       d="m 92.454232,194.67355 c -0.6163,0.62019 -0.98143,1.42805 -0.91052,2.60245 -0.13158,1.59773 2.82998,0.56973 4.73146,0.44167 -0.65017,1.52894 -1.40653,3.43394 -0.41699,3.85833 2.08139,0.88865 4.231928,-1.26823 5.119868,-3.35103 -0.0642,2.8388 1.6824,6.44772 4.08199,5.35516 0.009,1.55434 -0.2914,2.80953 -1.10137,3.15137 -2.8127,1.18992 -4.213928,-4.0633 -5.057068,-5.46312 -0.42404,7.61894 -7.44432,3.36973 -5.05531,-0.8262 0.42933,-0.33197 0.78388,-0.74789 1.0033,-1.23861 -0.43921,0.40429 -0.76729,0.82127 -1.0033,1.23861 -1.86302,1.42698 -5.21758,1.26012 -5.90515,-1.38748 -0.69779,-2.68217 1.8094,-4.0266 4.51309,-4.38115"
       style="fill:#f26f16;fill-opacity:1;fill-rule:nonzero;stroke:none;stroke-width:0.35277775"
       id="path10688"
       inkscape:connector-curvature="0" />
    <path
       d="m 98.956142,200.57345 0.46743,0.77364 c 0.1852,0.30973 0.39264,0.78211 0.629698,1.32891 0.76165,1.74696 1.90854,4.38573 3.59305,4.15855 0.15734,-0.0212 0.32208,-0.0677 0.48754,-0.139 0.61171,-0.25682 0.94191,-1.28411 0.93133,-2.89137 -0.0173,-2.92135 -1.14088,-6.85376 -1.97449,-7.72759 l -5.611638,-0.36654 c -1.00719,-0.55845 -2.89737,-0.7754 -4.7043,-0.5394 h -7.9e-4 c -1.91241,0.25859 -3.34998,0.94933 -3.98956,1.90147 -0.40464,0.60325 -0.50236,1.32116 -0.2914,2.13466 0.46497,1.78435 2.17699,2.20874 3.50097,2.03024 0.70873,-0.0967 1.38889,-0.36689 1.92264,-0.762 0.10125,-0.16722 0.24906,-0.34643 0.41804,-0.36971 l 0.21237,-0.0275 0.0931,0.20285 c 0.0727,0.17109 -0.0152,0.3429 -0.29492,0.56656 -0.60396,1.09996 -0.56621,2.34456 0.10478,3.33974 0.57502,0.8509 1.47778,1.32821 2.29905,1.21815 1.24213,-0.16757 2.02706,-1.60056 2.15794,-3.92924 z m 4.763198,6.81143 v 0 c -2.09902,0.28398 -3.3468,-2.58551 -4.174418,-4.48663 -0.0632,-0.14217 -0.12312,-0.27764 -0.18062,-0.40816 -0.42651,2.85362 -1.88524,3.3789 -2.54,3.46568 -1.03082,0.14041 -2.14348,-0.43144 -2.83669,-1.45732 -0.63464,-0.94156 -0.79092,-2.0701 -0.45931,-3.14501 -0.45297,0.21731 -0.94862,0.36618 -1.4598,0.43391 -1.67146,0.22649 -3.59269,-0.44062 -4.1148,-2.44051 -0.254,-0.97473 -0.12805,-1.84327 0.36971,-2.58622 0.99554,-1.48272 3.1429,-1.97485 4.33388,-2.13677 1.92687,-0.25224 3.92042,-0.0205 5.03555,0.56974 l 5.629628,0.33866 0.0706,0.0617 c 1.04528,0.91193 2.21085,5.20735 2.2292,8.20667 0.0113,1.89971 -0.41663,3.04729 -1.27106,3.40924 -0.21131,0.09 -0.42439,0.14746 -0.63183,0.17498"
       style="fill:#231f20;fill-opacity:1;fill-rule:nonzero;stroke:none;stroke-width:0.35277775"
       id="path10692"
       inkscape:connector-curvature="0" />
    <path
       d="m 94.879902,142.31411 c 2.84797,-1.40582 5.907968,-2.34597 9.055798,-2.77636 4.99992,-0.6858 10.22209,-0.0829 15.17579,2.03059 0.17463,0.0734 0.34326,0.15346 0.51541,0.23177 -4.00156,-0.22013 -7.92092,0.15628 -11.63566,1.04423 -3.32952,0.79586 -6.49217,2.00271 -9.386008,3.57646 -6.36023,3.46321 -11.42224,8.66739 -14.13722,15.03327 -5.13573,13.0951 0.70309,26.32638 11.3404,34.95638 -0.0236,-0.0124 -0.0494,-0.0212 -0.0755,-0.0314 -14.84243,-6.3313 -21.644333,-23.73524 -15.18815,-38.87045 2.94499,-6.90562 8.14388,-12.13802 14.33513,-15.19449"
       style="fill:#f04e23;fill-opacity:1;fill-rule:nonzero;stroke:none;stroke-width:0.35277775"
       id="path10696"
       inkscape:connector-curvature="0" />
    <path
       d="m 117.18519,194.65045 c 12.79454,-7.18891 19.33786,-23.19126 17.133,-37.83082 1.30246,3.0353 2.1022,6.29496 2.33927,9.64283 0.32597,4.62032 -0.4057,9.40081 -2.3555,13.97563 -5.72593,13.4239 -19.95417,20.54366 -33.45603,17.56692 5.56084,0.54116 11.07158,-0.14534 16.33926,-3.35456"
       style="fill:#ea9053;fill-opacity:1;fill-rule:nonzero;stroke:none;stroke-width:0.35277775"
       id="path10700"
       inkscape:connector-curvature="0" />
    <path
       d="m 94.510612,184.36444 c -1.57516,-9.283 1.45485,-17.82974 6.568018,-25.4896 4.91207,-7.98054 11.92423,-15.06185 20.79271,-15.9452 5.22535,2.91747 9.24454,7.30285 11.77855,12.42801 0.23636,0.48083 0.45755,0.96837 0.66851,1.46191 2.20486,14.63956 -4.33881,30.64191 -17.13336,37.83082 -5.26732,3.20922 -10.77841,3.89607 -16.33925,3.35456 -0.16757,-0.0346 -0.33267,-0.0797 -0.49918,-0.11853 -2.951688,-3.83822 -5.152668,-8.22784 -5.835998,-13.52197"
       style="fill:#f47d20;fill-opacity:1;fill-rule:nonzero;stroke:none;stroke-width:0.35277775"
       id="path10704"
       inkscape:connector-curvature="0" />
    <path
       d="m 98.605092,146.42069 c 2.893828,-1.57374 6.056488,-2.78024 9.385998,-3.57611 3.7151,-0.88794 7.63411,-1.2647 11.63602,-1.04457 0.77012,0.34466 1.51906,0.72354 2.24402,1.12959 -8.86813,0.88336 -15.88064,7.96467 -20.79272,15.9452 -5.112798,7.66022 -8.143168,16.20661 -6.567658,25.4896 0.68298,5.29414 2.88396,9.68375 5.835998,13.52197 -1.527168,-0.36512 -3.046588,-0.84596 -4.538128,-1.47602 -10.63766,-8.62965 -16.47649,-21.86128 -11.3404,-34.95603 2.71463,-6.36623 7.77699,-11.57041 14.13687,-15.03363"
       style="fill:#f26f16;fill-opacity:1;fill-rule:nonzero;stroke:none;stroke-width:0.35277775"
       id="path10708"
       inkscape:connector-curvature="0" />
    <path
       d="m 89.875212,177.49578 c 1.55081,-0.28046 5.9944,1.39065 3.60998,2.94534 -1.82774,1.19592 -4.95265,-0.0921 -6.85977,0.68933 0.75989,-1.80305 -2.14771,-6.05896 0.69286,-7.26369 1.85808,-0.78776 3.22227,2.28846 1.96744,3.53306 z"
       style="fill:#ffffff;fill-opacity:1;fill-rule:nonzero;stroke:none;stroke-width:0.35277775"
       id="path10718"
       inkscape:connector-curvature="0" />
    <path
       d="m 90.937362,152.61582 c 1.54975,-0.27869 5.99228,1.38924 3.60786,2.94746 -1.82845,1.19521 -4.95159,-0.0945 -6.86083,0.68862 0.7613,-1.80234 -2.147,-6.05931 0.69533,-7.26334 1.85737,-0.78599 3.22156,2.28706 1.96638,3.53342 z"
       style="fill:#ffffff;fill-opacity:1;fill-rule:nonzero;stroke:none;stroke-width:0.35277775"
       id="path10734"
       inkscape:connector-curvature="0" />
    <path
       d="m 111.22377,147.51744 c 1.02941,-1.1938 5.53085,-2.69522 4.65843,0.0155 -0.66498,2.07857 -3.90384,3.04871 -4.89197,4.8574 -0.54433,-1.87995 -5.48393,-3.3528 -4.03719,-6.07836 0.94686,-1.78188 3.94194,-0.25224 3.75462,1.50424 z"
       style="fill:#ffffff;fill-opacity:1;fill-rule:nonzero;stroke:none;stroke-width:0.35277775"
       id="path10750"
       inkscape:connector-curvature="0" />
    <path
       d="m 101.72154,191.22173 c 1.02552,-1.19733 5.52872,-2.69734 4.65842,0.012 -0.66781,2.07962 -3.90383,3.04835 -4.89126,4.85704 -0.54752,-1.87783 -5.487458,-3.34962 -4.037898,-6.07659 0.94439,-1.78083 3.942288,-0.25224 3.751438,1.50459 z"
       style="fill:#ffffff;fill-opacity:1;fill-rule:nonzero;stroke:none;stroke-width:0.35277775"
       id="path10766"
       inkscape:connector-curvature="0" />
    <path
       d="m 127.09189,158.02429 c 1.02729,-1.1945 5.52944,-2.69804 4.66055,0.0134 -0.66851,2.07963 -3.90525,3.048 -4.89338,4.85775 -0.54646,-1.87889 -5.48534,-3.35174 -4.03825,-6.07695 0.94721,-1.78188 3.943,-0.254 3.75285,1.5046 z"
       style="fill:#ffffff;fill-opacity:1;fill-rule:nonzero;stroke:none;stroke-width:0.35277775"
       id="path10782"
       inkscape:connector-curvature="0" />
    <path
       d="m 107.73339,168.47702 c 1.56457,0.1972 5.30119,3.12138 2.56152,3.89114 -2.10185,0.59196 -4.69865,-1.57092 -6.75182,-1.39771 1.26824,-1.49013 -0.23177,-6.42478 2.83916,-6.7204 2.00695,-0.19474 2.38654,3.14853 0.81774,3.96062 z"
       style="fill:#ffffff;fill-opacity:1;fill-rule:nonzero;stroke:none;stroke-width:0.35277775"
       id="path10798"
       inkscape:connector-curvature="0" />
    <path
       d="m 124.45089,180.27546 c 0.21625,-1.56351 3.18594,-5.26486 3.92254,-2.51531 0.56903,2.10855 -1.62596,4.67643 -1.47567,6.73312 -1.47885,-1.28305 -6.42726,0.1584 -6.68726,-2.91783 -0.17286,-2.01154 3.17324,-2.3502 3.96875,-0.77117 z"
       style="fill:#ffffff;fill-opacity:1;fill-rule:nonzero;stroke:none;stroke-width:0.35277775"
       id="path10814"
       inkscape:connector-curvature="0" />
    <path
       d="m 137.02202,166.42824 c -1.28517,-14.63181 -12.48234,-26.12955 -27.20446,-27.28031 -13.593578,-1.06221 -26.085788,8.12447 -30.517028,20.69006 -3.977223,11.27548 -0.43145,24.06402 8.37811,31.99447 8.86602,7.98054 21.995698,9.08297 32.522938,3.97016 11.03065,-5.36152 17.48895,-17.26636 16.82044,-29.37438 -0.018,-0.31962 -0.79869,-0.0508 -0.78493,0.21166 0.8703,15.75469 -10.29158,29.83935 -26.11649,31.70942 -13.929068,1.64712 -26.671048,-7.83131 -30.540668,-20.96734 -4.562833,-15.48729 4.9403,-32.00999 20.16654,-36.6783 17.700618,-5.42996 34.940508,8.28252 36.490618,25.93622 0.0282,0.32174 0.80751,0.0466 0.78493,-0.21166"
       style="fill:#231f20;fill-opacity:1;fill-rule:nonzero;stroke:none;stroke-width:0.35277775"
       id="path10824"
       inkscape:connector-curvature="0" />
  </g>
</svg>
