<?xml version="1.0" encoding="UTF-8" standalone="no"?>
<!-- Created with Inkscape (http://www.inkscape.org/) -->

<svg
   xmlns:dc="http://purl.org/dc/elements/1.1/"
   xmlns:cc="http://creativecommons.org/ns#"
   xmlns:rdf="http://www.w3.org/1999/02/22-rdf-syntax-ns#"
   xmlns:svg="http://www.w3.org/2000/svg"
   xmlns="http://www.w3.org/2000/svg"
   xmlns:sodipodi="http://sodipodi.sourceforge.net/DTD/sodipodi-0.dtd"
   xmlns:inkscape="http://www.inkscape.org/namespaces/inkscape"
   width="186mm"
   height="220mm"
   viewBox="0 0 186 220"
   version="1.1"
   id="svg5274"
   inkscape:version="0.92.5 (2060ec1f9f, 2020-04-08)"
   sodipodi:docname="border-container-baby-2.svg">
  <defs
     id="defs5268">
    <clipPath
       id="clipPath7468"
       clipPathUnits="userSpaceOnUse">
      <path
         inkscape:connector-curvature="0"
         id="path7466"
         d="M 0,1000 H 1000 V 0 H 0 Z" />
    </clipPath>
    <clipPath
       id="clipPath7476"
       clipPathUnits="userSpaceOnUse">
      <path
         inkscape:connector-curvature="0"
         id="path7474"
         d="M 489.861,706.869 H 990.77 V 205.963 H 489.861 Z" />
    </clipPath>
  </defs>
  <sodipodi:namedview
     id="base"
     pagecolor="#ffffff"
     bordercolor="#666666"
     borderopacity="1.0"
     inkscape:pageopacity="0.0"
     inkscape:pageshadow="2"
     inkscape:zoom="0.35"
     inkscape:cx="400"
     inkscape:cy="560"
     inkscape:document-units="mm"
     inkscape:current-layer="layer1"
     showgrid="false"
     showguides="true"
     inkscape:guide-bbox="true"
     inkscape:snap-bbox="false"
     inkscape:snap-page="true"
     inkscape:window-width="1312"
     inkscape:window-height="704"
     inkscape:window-x="0"
     inkscape:window-y="27"
     inkscape:window-maximized="1" />
  <metadata
     id="metadata5271">
    <rdf:RDF>
      <cc:Work
         rdf:about="">
        <dc:format>image/svg+xml</dc:format>
        <dc:type
           rdf:resource="http://purl.org/dc/dcmitype/StillImage" />
        <dc:title></dc:title>
      </cc:Work>
    </rdf:RDF>
  </metadata>
  <g
     inkscape:label="Capa 1"
     inkscape:groupmode="layer"
     id="layer1"
     transform="translate(0,-77)">
    <g
       id="layer1-1"
       inkscape:label="Capa 1"
       transform="translate(-10.934504,35.531527)">
      <g
         transform="matrix(0.35277777,0,0,-0.42726778,-156.05673,349.46982)"
         id="g7464"
         clip-path="url(#clipPath7468)">
        <g
           id="g7470">
          <g
             id="g7472" />
          <g
             id="g7484">
            <g
               clip-path="url(#clipPath7476)"
               id="g7482"
               style="opacity:0.25999505">
              <g
                 transform="translate(740.3154,205.9629)"
                 id="g7480">
                <path
                   d="m 0,0 c -32.434,0 -60.688,10.849 -88.013,21.339 -12.672,4.867 -25.775,9.896 -38.67,13.501 -2.645,0.74 -9.6,1.977 -26.416,1.977 -22.866,0 -49.047,-2.269 -50.151,-2.366 l -13.991,-1.239 1.238,13.995 c 2.025,22.884 3.923,63.91 0.389,76.567 -3.604,12.896 -8.633,25.998 -13.498,38.669 -10.492,27.325 -21.342,55.58 -21.342,88.009 0,32.431 10.85,60.683 21.341,88.008 4.866,12.673 9.897,25.778 13.499,38.673 3.534,12.657 1.636,53.681 -0.389,76.567 l -1.238,13.994 13.994,-1.239 c 0.268,-0.023 27.015,-2.368 50.148,-2.368 16.818,0 23.771,1.241 26.42,1.98 12.888,3.601 25.989,8.631 38.66,13.496 27.332,10.494 55.589,21.343 88.019,21.343 32.429,0 60.684,-10.848 88.008,-21.339 12.674,-4.866 25.775,-9.898 38.671,-13.5 2.649,-0.739 9.602,-1.98 26.419,-1.98 23.159,0 49.881,2.345 50.147,2.368 l 13.996,1.239 -1.238,-13.995 c -2.025,-22.884 -3.924,-63.908 -0.389,-76.566 3.604,-12.896 8.632,-26.001 13.5,-38.673 10.49,-27.323 21.34,-55.577 21.34,-88.008 0,-32.427 -10.848,-60.682 -21.34,-88.007 -4.868,-12.673 -9.898,-25.777 -13.5,-38.671 -3.535,-12.657 -1.636,-53.683 0.389,-76.567 l 1.236,-13.995 -13.994,1.239 c -1.096,0.097 -27.282,2.366 -50.144,2.366 -16.82,0 -23.773,-1.237 -26.422,-1.977 C 113.787,31.235 100.684,26.206 88.013,21.339 60.687,10.849 32.431,0 0,0"
                   style="fill:#231f20;fill-opacity:1;fill-rule:nonzero;stroke:none"
                   id="path7478"
                   inkscape:connector-curvature="0" />
              </g>
            </g>
          </g>
        </g>
        <g
           id="g7486"
           transform="translate(734.1309,212.4746)">
          <path
             d="m 0,0 c -32.432,0 -60.688,10.85 -88.013,21.341 -12.672,4.866 -25.775,9.896 -38.67,13.499 -2.645,0.739 -9.601,1.979 -26.417,1.979 -22.865,0 -49.048,-2.271 -50.152,-2.368 l -13.99,-1.237 1.239,13.993 c 2.025,22.886 3.923,63.909 0.388,76.567 -3.603,12.897 -8.634,26 -13.498,38.669 -10.492,27.325 -21.342,55.58 -21.342,88.01 0,32.43 10.849,60.684 21.341,88.008 4.865,12.673 9.897,25.777 13.499,38.673 3.535,12.657 1.637,53.681 -0.388,76.567 l -1.239,13.993 13.996,-1.238 c 0.267,-0.023 27.015,-2.369 50.146,-2.369 16.818,0 23.772,1.242 26.42,1.981 12.888,3.601 25.99,8.631 38.659,13.495 27.334,10.495 55.591,21.344 88.021,21.344 32.428,0 60.684,-10.847 88.008,-21.339 12.673,-4.866 25.775,-9.898 38.671,-13.5 2.648,-0.74 9.602,-1.981 26.419,-1.981 23.157,0 49.88,2.346 50.147,2.369 l 13.994,1.239 -1.237,-13.995 c -2.027,-22.885 -3.924,-63.908 -0.39,-76.566 3.605,-12.897 8.634,-26.002 13.5,-38.673 10.492,-27.323 21.341,-55.578 21.341,-88.008 0,-32.427 -10.848,-60.683 -21.341,-88.008 -4.866,-12.673 -9.897,-25.776 -13.5,-38.671 -3.534,-12.658 -1.637,-53.681 0.39,-76.567 l 1.236,-13.993 -13.992,1.237 c -1.1,0.097 -27.284,2.368 -50.147,2.368 -16.818,0 -23.772,-1.24 -26.42,-1.979 C 113.785,31.237 100.683,26.207 88.011,21.341 60.686,10.85 32.43,0 0,0"
             style="fill:#ffffff;fill-opacity:1;fill-rule:nonzero;stroke:none"
             id="path7488"
             inkscape:connector-curvature="0" />
        </g>
        <g
           id="g7490"
           transform="translate(734.1309,218.3564)">
          <path
             d="m 0,0 c -31.341,0 -59.082,10.65 -85.905,20.951 -12.799,4.914 -26.033,9.994 -39.194,13.673 -3.589,1.001 -11.36,2.196 -28.001,2.196 -23.4,0 -50.397,-2.368 -50.667,-2.391 l -6.998,-0.619 0.62,6.997 c 1.485,16.76 4.413,63.567 0.195,78.668 -3.677,13.159 -8.758,26.397 -13.673,39.195 -10.299,26.826 -20.949,54.561 -20.949,85.901 0,31.34 10.65,59.075 20.949,85.9 4.914,12.8 9.996,26.036 13.673,39.199 4.218,15.1 1.29,61.906 -0.195,78.667 l -0.617,6.998 6.995,-0.62 c 0.27,-0.024 27.282,-2.392 50.667,-2.392 16.641,0 24.412,1.197 28.001,2.198 13.161,3.677 26.396,8.759 39.198,13.673 26.822,10.299 54.561,20.95 85.901,20.95 31.339,0 59.076,-10.651 85.901,-20.95 12.8,-4.915 26.035,-9.996 39.195,-13.673 3.592,-1.002 11.362,-2.198 28.002,-2.198 23.4,0 50.396,2.368 50.667,2.392 l 6.997,0.62 -0.619,-6.998 c -1.484,-16.761 -4.41,-63.568 -0.195,-78.667 3.677,-13.163 8.758,-26.399 13.673,-39.2 10.301,-26.824 20.95,-54.561 20.95,-85.899 0,-31.34 -10.65,-59.075 -20.95,-85.901 -4.915,-12.798 -9.996,-26.036 -13.673,-39.195 -4.215,-15.101 -1.289,-61.908 0.195,-78.668 l 0.619,-6.997 -6.997,0.619 c -0.271,0.023 -27.281,2.391 -50.666,2.391 -16.641,0 -24.411,-1.195 -28,-2.196 C 111.938,30.945 98.703,25.865 85.903,20.951 59.078,10.65 31.34,0 0,0"
             style="fill:#ffffff;fill-opacity:1;fill-rule:nonzero;stroke:none"
             id="path7492"
             inkscape:connector-curvature="0" />
        </g>
        <g
           id="g7494"
           transform="translate(735.2305,706.8418)">
          <path
             d="M 0,0 C -0.364,0.003 -0.733,0.005 -1.1,0.005 L -1.949,0.002 -1.959,1.31 -1.1,1.312 c 0.371,0 0.74,-0.002 1.112,-0.004 z M -6.499,-0.1 -6.55,1.206 c 0.654,0.026 1.311,0.046 1.967,0.063 l 0.034,-1.307 C -5.201,-0.054 -5.85,-0.075 -6.499,-0.1 M 4.552,-0.11 C 3.903,-0.084 3.255,-0.062 2.604,-0.045 L 2.638,1.262 C 3.295,1.244 3.952,1.223 4.605,1.196 Z m -15.599,-0.239 -0.09,1.304 c 0.654,0.046 1.309,0.088 1.966,0.126 l 0.073,-1.306 c -0.649,-0.036 -1.298,-0.078 -1.949,-0.124 M 9.098,-0.367 C 8.449,-0.321 7.801,-0.278 7.15,-0.239 L 7.228,1.065 C 7.884,1.026 8.54,0.984 9.192,0.937 Z m -24.68,-0.374 -0.132,1.301 c 0.651,0.066 1.305,0.128 1.959,0.186 l 0.116,-1.302 c -0.649,-0.058 -1.297,-0.119 -1.943,-0.185 m 29.229,-0.027 c -0.648,0.067 -1.297,0.129 -1.949,0.188 l 0.118,1.302 C 12.473,0.664 13.127,0.6 13.781,0.532 Z m -33.742,-0.5 -0.169,1.295 c 0.647,0.086 1.297,0.168 1.948,0.245 l 0.155,-1.298 c -0.648,-0.077 -1.291,-0.158 -1.934,-0.242 m 38.276,-0.039 c -0.648,0.087 -1.293,0.169 -1.941,0.247 l 0.155,1.298 c 0.655,-0.079 1.307,-0.161 1.959,-0.249 z m -42.773,-0.619 -0.206,1.29 c 0.644,0.104 1.292,0.205 1.94,0.301 l 0.191,-1.294 c -0.642,-0.095 -1.283,-0.194 -1.925,-0.297 m 47.287,-0.049 c -0.644,0.104 -1.286,0.205 -1.931,0.302 l 0.193,1.292 c 0.649,-0.097 1.303,-0.199 1.948,-0.305 z m -51.765,-0.733 -0.242,1.284 c 0.642,0.121 1.287,0.239 1.933,0.353 l 0.224,-1.287 c -0.64,-0.113 -1.278,-0.23 -1.915,-0.35 m 56.26,-0.061 c -0.639,0.122 -1.28,0.24 -1.924,0.355 l 0.229,1.287 c 0.649,-0.116 1.295,-0.235 1.94,-0.358 z m -60.719,-0.838 -0.278,1.278 c 0.64,0.137 1.282,0.27 1.924,0.402 l 0.262,-1.281 c -0.64,-0.13 -1.275,-0.263 -1.908,-0.399 m 65.19,-0.072 c -0.635,0.138 -1.272,0.273 -1.912,0.404 l 0.264,1.28 c 0.642,-0.131 1.285,-0.268 1.926,-0.407 z m -69.631,-0.935 -0.305,1.27 c 0.636,0.152 1.273,0.302 1.912,0.448 l 0.293,-1.274 c -0.635,-0.146 -1.269,-0.294 -1.9,-0.444 m 74.083,-0.084 c -0.634,0.154 -1.269,0.303 -1.906,0.45 l 0.293,1.274 c 0.644,-0.148 1.281,-0.299 1.919,-0.453 z m -78.502,-1.026 -0.332,1.265 c 0.634,0.165 1.268,0.33 1.903,0.489 l 0.32,-1.266 c -0.632,-0.161 -1.26,-0.322 -1.891,-0.488 m 82.93,-0.092 c -0.632,0.166 -1.264,0.33 -1.897,0.491 l 0.323,1.267 c 0.637,-0.162 1.271,-0.328 1.906,-0.495 z m -87.326,-1.109 -0.357,1.258 c 0.63,0.178 1.263,0.354 1.893,0.528 l 0.346,-1.26 c -0.628,-0.173 -1.255,-0.348 -1.882,-0.526 m 91.726,-0.102 c -0.626,0.179 -1.254,0.356 -1.884,0.529 l 0.347,1.26 c 0.635,-0.175 1.268,-0.352 1.897,-0.532 z m -96.098,-1.182 -0.381,1.251 c 0.627,0.19 1.255,0.377 1.881,0.562 l 0.371,-1.253 c -0.624,-0.184 -1.247,-0.371 -1.871,-0.56 M 49.321,-8.321 c -0.624,0.19 -1.25,0.378 -1.874,0.564 l 0.371,1.253 c 0.63,-0.186 1.257,-0.375 1.883,-0.567 z m -104.831,-1.248 -0.399,1.244 c 0.624,0.2 1.245,0.398 1.87,0.594 l 0.392,-1.248 c -0.622,-0.195 -1.244,-0.392 -1.863,-0.59 M 53.68,-9.688 c -0.622,0.2 -1.243,0.398 -1.867,0.594 l 0.395,1.247 c 0.625,-0.197 1.248,-0.396 1.872,-0.598 z m -113.524,-1.307 -0.417,1.238 c 0.619,0.209 1.24,0.417 1.862,0.621 l 0.41,-1.241 c -0.618,-0.203 -1.237,-0.41 -1.855,-0.618 m 117.863,-0.127 c -0.618,0.208 -1.238,0.416 -1.858,0.622 l 0.412,1.24 c 0.622,-0.206 1.243,-0.415 1.865,-0.624 z m -122.178,-1.356 -0.431,1.233 c 0.616,0.217 1.234,0.431 1.853,0.644 l 0.425,-1.235 c -0.616,-0.212 -1.231,-0.426 -1.847,-0.642 m 126.498,-0.134 c -0.615,0.216 -1.233,0.431 -1.851,0.645 l 0.429,1.236 c 0.618,-0.215 1.238,-0.431 1.855,-0.647 z m -130.797,-1.397 -0.445,1.229 c 0.614,0.222 1.229,0.444 1.844,0.664 l 0.442,-1.232 c -0.616,-0.219 -1.23,-0.44 -1.841,-0.661 m 135.104,-0.14 c -0.615,0.222 -1.228,0.444 -1.844,0.664 l 0.44,1.23 c 0.617,-0.221 1.234,-0.442 1.849,-0.666 z m -139.392,-1.43 -0.454,1.225 1.841,0.679 0.449,-1.228 z m 143.684,-0.147 c -0.612,0.227 -1.224,0.454 -1.838,0.68 l 0.451,1.227 c 0.614,-0.226 1.229,-0.454 1.845,-0.681 z m -147.96,-1.454 -0.462,1.222 1.834,0.69 0.459,-1.223 z m 152.246,-0.152 -1.836,0.691 0.46,1.224 1.837,-0.692 z m -156.515,-1.471 -0.468,1.221 1.829,0.698 0.467,-1.221 z m 160.791,-0.156 -1.832,0.699 0.465,1.222 1.834,-0.701 z m -165.057,-1.478 -0.469,1.22 1.827,0.701 0.469,-1.219 z m 169.332,-0.16 -1.831,0.702 0.468,1.221 1.832,-0.703 z m -173.604,-1.479 -0.467,1.22 1.83,0.703 0.469,-1.22 z m 177.874,-0.159 -1.83,0.701 0.469,1.221 1.83,-0.703 z m -182.149,-1.474 -0.465,1.222 1.833,0.697 0.465,-1.221 z m 186.424,-0.158 -1.834,0.697 0.468,1.222 1.83,-0.697 z m -190.709,-1.459 -0.457,1.224 1.832,0.689 0.461,-1.222 z m 194.993,-0.156 -1.836,0.69 0.461,1.222 1.834,-0.688 z m -199.288,-1.436 -0.449,1.228 1.838,0.677 0.453,-1.226 z m 203.583,-0.152 -1.842,0.676 0.453,1.226 1.838,-0.675 z m -207.891,-1.404 -0.437,1.232 c 0.615,0.219 1.229,0.438 1.842,0.66 l 0.442,-1.229 c -0.613,-0.223 -1.232,-0.444 -1.847,-0.663 m 212.203,-0.149 c -0.617,0.219 -1.234,0.439 -1.849,0.661 l 0.441,1.229 c 0.614,-0.221 1.231,-0.44 1.844,-0.658 z m -216.529,-1.362 -0.423,1.237 c 0.616,0.211 1.232,0.424 1.849,0.639 l 0.431,-1.234 c -0.619,-0.216 -1.237,-0.43 -1.857,-0.642 m 220.857,-0.144 c -0.619,0.211 -1.239,0.424 -1.857,0.64 l 0.427,1.234 c 0.617,-0.214 1.234,-0.427 1.852,-0.638 z m -225.203,-1.312 -0.406,1.243 c 0.621,0.202 1.238,0.407 1.857,0.614 l 0.413,-1.24 c -0.621,-0.208 -1.241,-0.413 -1.864,-0.617 m 229.552,-0.139 c -0.621,0.204 -1.244,0.408 -1.867,0.614 l 0.413,1.24 c 0.62,-0.205 1.239,-0.41 1.858,-0.61 z m -233.921,-1.25 -0.386,1.248 c 0.623,0.192 1.244,0.388 1.866,0.584 l 0.395,-1.246 c -0.625,-0.198 -1.249,-0.394 -1.875,-0.586 m 238.295,-0.132 c -0.626,0.192 -1.252,0.386 -1.878,0.583 l 0.393,1.247 c 0.621,-0.196 1.244,-0.389 1.869,-0.581 z m 89.361,-1.025 -0.115,1.302 1.952,0.173 0.114,-1.302 z m -417.001,-0.039 -1.951,0.172 0.112,1.302 1.953,-0.173 z m 84.951,-0.115 -0.362,1.256 c 0.626,0.179 1.249,0.363 1.875,0.548 l 0.372,-1.253 c -0.629,-0.186 -1.258,-0.37 -1.885,-0.551 m 247.088,-0.124 c -0.629,0.179 -1.26,0.362 -1.889,0.548 l 0.37,1.254 c 0.626,-0.185 1.252,-0.367 1.878,-0.546 z m 80.403,-0.127 -0.113,1.303 1.952,0.173 0.115,-1.302 z m -407.883,-0.039 -0.044,0.66 -0.053,-0.65 -1.857,0.164 0.114,1.301 1.85,-0.163 0.048,-0.661 z m 403.304,-0.335 -0.1,1.303 c 0.742,0.058 1.395,0.109 1.956,0.155 l 0.106,-1.303 c -0.561,-0.045 -1.218,-0.097 -1.962,-0.155 m -398.723,-0.034 -1.961,0.153 0.102,1.304 1.959,-0.154 z m 394.152,-0.305 -0.094,1.303 1.958,0.142 0.096,-1.304 z m -389.579,-0.033 -1.96,0.141 0.094,1.304 1.956,-0.14 z m 66.737,-0.111 -0.236,1.285 c 0.676,0.125 1.31,0.257 1.885,0.395 l 0.302,-1.271 c -0.595,-0.143 -1.252,-0.28 -1.951,-0.409 m 256.104,-0.08 c -0.694,0.12 -1.349,0.25 -1.953,0.386 l 0.285,1.275 c 0.585,-0.131 1.22,-0.257 1.892,-0.374 z m 62.165,-0.09 -0.087,1.305 1.957,0.13 0.09,-1.304 z m -380.433,-0.029 -1.96,0.13 0.088,1.304 1.956,-0.13 z m 375.857,-0.257 -0.077,1.305 1.958,0.119 0.08,-1.304 z m -371.281,-0.026 -1.963,0.118 0.083,1.305 1.956,-0.118 z m 53.019,-0.178 -0.148,1.3 c 0.688,0.076 1.331,0.157 1.929,0.239 l 0.179,-1.295 c -0.609,-0.083 -1.261,-0.165 -1.96,-0.244 m 265.243,-0.049 c -0.696,0.074 -1.35,0.153 -1.96,0.233 l 0.169,1.295 c 0.602,-0.079 1.247,-0.155 1.933,-0.229 z m 48.443,-0.006 -0.07,1.306 1.959,0.107 0.071,-1.305 z m -362.13,-0.023 -1.96,0.106 0.071,1.306 1.958,-0.107 z m 357.551,-0.207 -0.059,1.305 c 0.657,0.031 1.311,0.063 1.958,0.096 l 0.063,-1.306 c -0.646,-0.033 -1.301,-0.065 -1.962,-0.095 m -352.973,-0.022 -1.963,0.094 0.066,1.306 1.957,-0.094 z m 39.286,-0.109 -0.093,1.304 c 0.677,0.049 1.324,0.1 1.944,0.154 l 0.113,-1.301 c -0.625,-0.056 -1.28,-0.106 -1.964,-0.157 m 274.405,-0.03 c -0.683,0.046 -1.339,0.095 -1.963,0.148 l 0.108,1.303 c 0.619,-0.052 1.267,-0.101 1.945,-0.148 z m 34.704,-0.04 -0.052,1.306 1.959,0.082 0.056,-1.306 z m -343.816,-0.018 c -0.658,0.026 -1.313,0.053 -1.962,0.08 l 0.056,1.307 c 0.647,-0.029 1.302,-0.055 1.958,-0.08 z m 339.236,-0.149 -0.042,1.307 1.96,0.067 0.046,-1.307 z m -334.657,-0.014 c -0.656,0.021 -1.31,0.043 -1.963,0.066 l 0.045,1.306 c 0.652,-0.023 1.306,-0.045 1.96,-0.066 z m 25.544,-0.01 -0.058,1.306 c 0.672,0.03 1.322,0.061 1.95,0.096 l 0.072,-1.306 c -0.633,-0.034 -1.287,-0.066 -1.964,-0.096 m 283.571,-0.02 c -0.674,0.028 -1.33,0.06 -1.963,0.092 l 0.067,1.306 c 0.631,-0.033 1.28,-0.063 1.952,-0.092 z m 20.955,-0.085 -0.031,1.307 c 0.656,0.015 1.312,0.031 1.963,0.05 l 0.037,-1.307 c -0.655,-0.018 -1.312,-0.034 -1.969,-0.05 m -325.49,-0.011 c -0.656,0.015 -1.311,0.032 -1.964,0.049 l 0.035,1.307 c 0.652,-0.018 1.305,-0.034 1.958,-0.049 z m 16.378,-0.036 -0.03,1.307 c 0.671,0.015 1.321,0.033 1.955,0.054 l 0.04,-1.307 c -0.635,-0.021 -1.291,-0.038 -1.965,-0.054 m 292.745,-0.011 c -0.674,0.015 -1.33,0.032 -1.965,0.051 l 0.036,1.306 c 0.635,-0.019 1.286,-0.035 1.954,-0.05 z m 11.783,-0.029 -0.017,1.306 c 0.652,0.011 1.303,0.02 1.957,0.033 l 0.023,-1.308 c -0.654,-0.011 -1.308,-0.022 -1.963,-0.031 m -316.314,-0.006 c -0.656,0.009 -1.314,0.019 -1.972,0.03 l 0.023,1.307 c 0.656,-0.011 1.309,-0.021 1.963,-0.03 z m 7.203,-0.023 -0.01,1.307 c 0.668,0.005 1.319,0.012 1.956,0.02 l 0.019,-1.307 c -0.639,-0.009 -1.294,-0.015 -1.965,-0.02 m 301.909,-0.003 c -0.669,0.005 -1.323,0.01 -1.964,0.018 l 0.017,1.308 c 0.637,-0.009 1.288,-0.015 1.955,-0.019 z m 2.621,-0.005 -0.003,1.308 c 0.651,10e-4 1.303,0.004 1.958,0.008 l 0.011,-1.306 c -0.658,-0.006 -1.312,-0.008 -1.966,-0.01 m -307.148,0 c -0.654,0 -1.308,0.002 -1.967,0.006 l 0.009,1.307 c 0.655,-0.004 1.308,-0.005 1.958,-0.005 z m -57.715,-0.36 -0.173,1.953 1.303,0.115 0.172,-1.954 z m 422.087,-0.446 -1.303,0.117 0.172,1.953 1.303,-0.116 z m -421.686,-4.109 c -0.047,0.532 -0.09,1.041 -0.134,1.524 l -0.036,0.426 1.301,0.116 0.038,-0.426 c 0.044,-0.485 0.085,-0.996 0.132,-1.531 z m 421.286,-0.446 -1.301,0.109 c 0.056,0.692 0.114,1.345 0.168,1.959 l 1.301,-0.116 c -0.054,-0.611 -0.11,-1.263 -0.168,-1.952 m -420.922,-4.113 -0.152,1.955 1.304,0.102 0.15,-1.957 z m 420.562,-0.446 -1.303,0.099 0.15,1.958 1.302,-0.101 z m -420.232,-4.116 -0.138,1.956 1.303,0.093 0.137,-1.958 z m 419.906,-0.445 -1.304,0.089 0.138,1.959 1.302,-0.092 z m -419.608,-4.118 -0.125,1.956 1.305,0.085 0.125,-1.959 z m 419.312,-0.446 -1.306,0.081 0.125,1.96 1.305,-0.085 z m -419.039,-4.119 -0.114,1.956 1.304,0.078 0.115,-1.96 z m 418.77,-0.447 -1.303,0.074 0.108,1.96 1.307,-0.076 z m -418.529,-4.12 -0.1,1.957 1.305,0.069 0.1,-1.96 z m 418.29,-0.446 -1.307,0.064 0.099,1.961 1.306,-0.068 z m -418.075,-4.122 -0.088,1.958 1.305,0.061 0.088,-1.963 z m 417.863,-0.447 -1.306,0.058 0.087,1.96 1.305,-0.059 z m -417.681,-4.122 -0.074,1.958 1.306,0.052 0.074,-1.962 z m 417.501,-0.443 -1.306,0.047 0.074,1.958 1.305,-0.049 z m -417.353,-4.13 c -0.018,0.653 -0.038,1.306 -0.059,1.96 l 1.307,0.041 c 0.021,-0.654 0.039,-1.308 0.059,-1.965 z m 417.211,-0.437 -1.308,0.036 c 0.018,0.654 0.037,1.308 0.058,1.962 l 1.306,-0.04 c -0.019,-0.653 -0.039,-1.306 -0.056,-1.958 m -417.104,-4.131 c -0.012,0.651 -0.025,1.303 -0.041,1.957 l 1.308,0.03 c 0.016,-0.655 0.029,-1.308 0.042,-1.962 z m 416.997,-0.444 -1.307,0.025 c 0.012,0.653 0.025,1.31 0.041,1.967 l 1.307,-0.03 c -0.015,-0.654 -0.03,-1.309 -0.041,-1.962 m -416.928,-4.124 c -0.008,0.651 -0.013,1.304 -0.024,1.959 l 1.307,0.018 c 0.01,-0.656 0.018,-1.312 0.023,-1.964 z m 416.867,-0.445 -1.309,0.01 c 0.006,0.653 0.013,1.308 0.021,1.965 l 1.307,-0.018 c -0.007,-0.656 -0.016,-1.307 -0.019,-1.957 m -415.546,-4.127 -1.307,0.004 10e-4,1.028 -10e-4,0.929 1.307,0.004 0.002,-0.933 z m 414.229,-0.446 -0.003,1.479 v 0.483 h 1.306 v -0.487 l 0.004,-1.471 z m -414.274,-4.137 -1.307,0.022 c 0.011,0.648 0.02,1.299 0.028,1.958 l 1.307,-0.015 c -0.008,-0.66 -0.017,-1.316 -0.028,-1.965 m 414.326,-0.449 c -0.012,0.649 -0.023,1.304 -0.031,1.965 l 1.308,0.016 c 0.007,-0.658 0.018,-1.31 0.031,-1.956 z m -414.449,-4.137 -1.307,0.048 c 0.023,0.643 0.044,1.294 0.064,1.954 l 1.306,-0.036 c -0.021,-0.664 -0.04,-1.319 -0.063,-1.966 m 414.581,-0.449 c -0.025,0.646 -0.047,1.302 -0.068,1.965 l 1.308,0.039 c 0.017,-0.659 0.04,-1.311 0.066,-1.953 z m -414.804,-4.138 -1.305,0.081 c 0.04,0.639 0.076,1.289 0.109,1.951 l 1.305,-0.065 c -0.033,-0.667 -0.07,-1.322 -0.109,-1.967 m 415.039,-0.448 c -0.041,0.642 -0.08,1.298 -0.116,1.964 l 1.307,0.069 c 0.033,-0.66 0.071,-1.312 0.112,-1.949 z m -415.403,-4.137 -1.302,0.128 c 0.063,0.632 0.122,1.278 0.175,1.942 l 1.302,-0.105 c -0.054,-0.671 -0.112,-1.327 -0.175,-1.965 m 415.784,-0.448 c -0.066,0.637 -0.127,1.292 -0.185,1.963 l 1.301,0.111 c 0.058,-0.663 0.119,-1.31 0.183,-1.94 z m -416.366,-4.131 -1.291,0.208 c 0.1,0.615 0.193,1.256 0.279,1.922 l 1.295,-0.169 c -0.087,-0.679 -0.183,-1.333 -0.283,-1.961 m 416.975,-0.446 c -0.106,0.625 -0.206,1.279 -0.298,1.959 l 1.295,0.177 c 0.092,-0.667 0.187,-1.306 0.294,-1.918 z m -417.965,-4.094 -1.258,0.354 0.12,0.431 c 0.124,0.45 0.244,0.927 0.357,1.433 l 1.277,-0.284 c -0.12,-0.53 -0.242,-1.03 -0.376,-1.502 z m 419.002,-0.43 -0.241,0.862 c -0.096,0.338 -0.186,0.69 -0.272,1.057 l 1.271,0.301 c 0.083,-0.35 0.17,-0.685 0.26,-1.005 l 0.242,-0.86 z m -420.292,-3.974 -1.251,0.38 c 0.19,0.624 0.376,1.249 0.561,1.873 l 1.254,-0.368 c -0.185,-0.629 -0.372,-1.256 -0.564,-1.885 m 421.59,-0.426 c -0.19,0.628 -0.379,1.254 -0.566,1.88 l 1.253,0.373 c 0.186,-0.624 0.374,-1.248 0.565,-1.872 z m -422.96,-3.951 -1.244,0.4 c 0.2,0.622 0.398,1.243 0.593,1.865 l 1.248,-0.392 c -0.196,-0.625 -0.396,-1.25 -0.597,-1.873 m 424.339,-0.424 c -0.203,0.624 -0.404,1.248 -0.6,1.872 l 1.247,0.394 c 0.194,-0.621 0.395,-1.241 0.596,-1.863 z m -425.779,-3.93 -1.238,0.419 c 0.21,0.619 0.417,1.238 0.622,1.857 l 1.241,-0.412 c -0.206,-0.622 -0.415,-1.242 -0.625,-1.864 m 427.224,-0.42 c -0.212,0.621 -0.421,1.242 -0.628,1.861 l 1.241,0.415 c 0.206,-0.618 0.413,-1.237 0.624,-1.855 z m -428.722,-3.911 -1.231,0.435 c 0.216,0.614 0.432,1.231 0.645,1.848 l 1.235,-0.428 c -0.214,-0.619 -0.431,-1.238 -0.649,-1.855 m 430.224,-0.417 c -0.218,0.617 -0.435,1.234 -0.649,1.852 l 1.233,0.43 c 0.214,-0.617 0.431,-1.231 0.649,-1.847 z m -431.769,-3.895 -1.229,0.446 c 0.224,0.612 0.446,1.226 0.665,1.842 l 1.232,-0.442 c -0.221,-0.616 -0.444,-1.231 -0.668,-1.846 m 433.319,-0.417 c -0.224,0.615 -0.447,1.229 -0.668,1.846 l 1.228,0.442 c 0.221,-0.613 0.444,-1.227 0.666,-1.84 z m -434.904,-3.881 -1.223,0.456 c 0.229,0.611 0.455,1.224 0.681,1.836 l 1.227,-0.453 c -0.227,-0.613 -0.454,-1.226 -0.685,-1.839 m 436.49,-0.415 c -0.229,0.612 -0.457,1.226 -0.684,1.84 l 1.228,0.452 c 0.224,-0.612 0.452,-1.224 0.681,-1.835 z m -438.1,-3.871 -1.221,0.464 0.693,1.832 1.221,-0.46 z m 439.713,-0.415 -0.691,1.836 1.22,0.461 0.694,-1.833 z m -441.341,-3.861 -1.222,0.466 0.701,1.83 1.221,-0.464 z m 442.973,-0.416 -0.701,1.833 1.22,0.466 0.702,-1.831 z m -444.612,-3.856 -1.218,0.471 0.701,1.828 1.221,-0.47 z m 446.251,-0.416 -0.704,1.831 1.221,0.468 0.702,-1.828 z m -447.888,-3.856 -1.222,0.467 0.702,1.832 1.22,-0.467 z m 449.522,-0.409 -0.698,1.828 1.22,0.468 0.7,-1.83 z m -451.152,-3.868 -1.223,0.464 0.697,1.836 1.221,-0.467 z m 452.778,-0.401 -0.694,1.83 1.221,0.464 0.695,-1.832 z m -454.39,-3.883 -1.224,0.457 0.688,1.838 1.223,-0.457 z m 455.995,-0.392 -0.686,1.833 1.225,0.458 0.685,-1.836 z m -457.576,-3.9 -1.228,0.446 c 0.224,0.617 0.448,1.233 0.676,1.846 l 1.227,-0.45 c -0.227,-0.613 -0.451,-1.227 -0.675,-1.842 m 459.152,-0.386 c -0.223,0.613 -0.446,1.225 -0.67,1.837 l 1.225,0.452 c 0.226,-0.614 0.451,-1.228 0.673,-1.842 z m -460.697,-3.917 -1.232,0.435 c 0.218,0.619 0.438,1.235 0.658,1.852 l 1.231,-0.441 c -0.221,-0.615 -0.44,-1.23 -0.657,-1.846 m 462.234,-0.38 c -0.216,0.616 -0.433,1.229 -0.651,1.843 l 1.23,0.44 c 0.22,-0.617 0.438,-1.232 0.656,-1.849 z m -463.731,-3.939 -1.24,0.421 c 0.212,0.621 0.425,1.24 0.64,1.859 l 1.234,-0.427 c -0.214,-0.617 -0.424,-1.233 -0.634,-1.853 m 465.223,-0.375 c -0.209,0.619 -0.42,1.235 -0.632,1.852 l 1.236,0.425 c 0.213,-0.619 0.424,-1.236 0.635,-1.856 z m -466.667,-3.959 -1.244,0.403 c 0.203,0.622 0.407,1.246 0.613,1.868 l 1.242,-0.411 c -0.207,-0.621 -0.41,-1.24 -0.611,-1.86 m 468.104,-0.37 c -0.2,0.62 -0.404,1.24 -0.608,1.857 l 1.241,0.411 c 0.206,-0.621 0.409,-1.241 0.611,-1.864 z m -469.484,-3.986 -1.25,0.384 c 0.194,0.628 0.39,1.253 0.585,1.878 l 1.248,-0.392 c -0.197,-0.622 -0.39,-1.246 -0.583,-1.87 m 470.855,-0.363 c -0.192,0.622 -0.385,1.245 -0.579,1.866 l 1.247,0.392 c 0.195,-0.624 0.388,-1.249 0.582,-1.874 z m -472.161,-4.013 -1.257,0.363 c 0.181,0.631 0.367,1.259 0.554,1.888 l 1.252,-0.374 c -0.185,-0.625 -0.37,-1.25 -0.549,-1.877 m 473.46,-0.358 c -0.181,0.627 -0.364,1.251 -0.547,1.876 l 1.253,0.371 c 0.186,-0.629 0.368,-1.256 0.55,-1.885 z m -474.686,-4.041 -1.262,0.338 c 0.17,0.635 0.342,1.267 0.518,1.9 l 1.258,-0.349 c -0.173,-0.629 -0.345,-1.258 -0.514,-1.889 m 475.9,-0.35 c -0.167,0.63 -0.337,1.258 -0.509,1.883 l 1.259,0.348 c 0.174,-0.63 0.344,-1.262 0.514,-1.895 z m -477.035,-4.073 -1.269,0.312 c 0.156,0.637 0.316,1.275 0.478,1.91 l 1.267,-0.323 c -0.162,-0.631 -0.32,-1.264 -0.476,-1.899 m 478.16,-0.341 c -0.154,0.631 -0.309,1.263 -0.47,1.894 l 1.267,0.32 c 0.161,-0.633 0.318,-1.268 0.473,-1.905 z m -479.195,-4.103 -1.277,0.28 c 0.142,0.643 0.288,1.282 0.435,1.921 l 1.272,-0.294 c -0.146,-0.635 -0.289,-1.27 -0.43,-1.907 m 480.22,-0.333 c -0.14,0.637 -0.282,1.27 -0.427,1.904 l 1.276,0.291 c 0.143,-0.637 0.289,-1.275 0.427,-1.917 z m -481.149,-4.137 -1.283,0.25 c 0.126,0.646 0.256,1.289 0.388,1.932 l 1.278,-0.264 c -0.13,-0.639 -0.258,-1.276 -0.383,-1.918 m 482.068,-0.32 c -0.124,0.639 -0.251,1.276 -0.381,1.913 l 1.28,0.262 c 0.131,-0.642 0.259,-1.285 0.383,-1.927 z m -482.88,-4.171 -1.289,0.216 c 0.108,0.648 0.22,1.297 0.336,1.941 l 1.286,-0.23 c -0.115,-0.64 -0.226,-1.283 -0.333,-1.927 m 483.682,-0.305 c -0.107,0.641 -0.216,1.282 -0.329,1.92 l 1.286,0.229 c 0.115,-0.645 0.226,-1.29 0.332,-1.937 z m -484.373,-4.208 -1.294,0.18 c 0.09,0.652 0.184,1.304 0.282,1.952 l 1.294,-0.194 c -0.099,-0.645 -0.193,-1.29 -0.282,-1.938 m 485.051,-0.287 c -0.09,0.644 -0.18,1.286 -0.276,1.927 l 1.293,0.192 c 0.097,-0.646 0.189,-1.293 0.276,-1.944 z m -485.611,-4.243 -1.3,0.142 c 0.071,0.654 0.147,1.307 0.226,1.96 l 1.298,-0.158 c -0.079,-0.646 -0.154,-1.296 -0.224,-1.944 m 486.16,-0.267 c -0.069,0.646 -0.142,1.291 -0.219,1.935 l 1.298,0.155 c 0.077,-0.649 0.151,-1.299 0.222,-1.951 z m -486.585,-4.28 -1.303,0.101 c 0.052,0.658 0.108,1.313 0.166,1.968 l 1.302,-0.118 c -0.057,-0.649 -0.113,-1.3 -0.165,-1.951 m 487.001,-0.249 c -0.051,0.652 -0.103,1.3 -0.162,1.946 l 1.301,0.117 c 0.059,-0.652 0.113,-1.307 0.162,-1.962 z m -487.281,-4.295 -1.305,0.059 c 0.03,0.658 0.064,1.314 0.104,1.968 l 1.304,-0.08 c -0.04,-0.647 -0.072,-1.295 -0.103,-1.947 m 487.553,-0.25 c -0.03,0.653 -0.063,1.304 -0.1,1.951 l 1.305,0.076 c 0.038,-0.654 0.07,-1.31 0.101,-1.967 z m -487.689,-4.302 -1.306,0.019 c 0.008,0.658 0.022,1.313 0.04,1.969 l 1.306,-0.036 c -0.017,-0.649 -0.03,-1.298 -0.04,-1.952 m 487.816,-0.244 c -0.008,0.652 -0.02,1.3 -0.036,1.948 l 1.307,0.034 c 0.017,-0.654 0.028,-1.31 0.035,-1.967 z m -489.108,-4.333 c -0.014,0.656 -0.023,1.313 -0.024,1.97 l 1.306,0.008 c 0.003,-0.654 0.012,-1.303 0.025,-1.949 z m 490.394,-0.247 -1.309,0.028 c 0.014,0.648 0.024,1.298 0.027,1.951 l 1.308,-0.01 c -0.005,-0.658 -0.014,-1.314 -0.026,-1.969 m -490.23,-4.345 c -0.034,0.656 -0.064,1.313 -0.088,1.969 l 1.305,0.05 c 0.025,-0.65 0.055,-1.302 0.088,-1.95 z m 490.056,-0.247 -1.305,0.07 c 0.035,0.648 0.066,1.299 0.093,1.95 l 1.304,-0.052 c -0.025,-0.658 -0.056,-1.313 -0.092,-1.968 m -489.745,-4.335 c -0.056,0.654 -0.106,1.308 -0.152,1.962 l 1.304,0.093 c 0.047,-0.649 0.097,-1.297 0.151,-1.946 z m 489.427,-0.253 -1.303,0.109 c 0.056,0.649 0.106,1.301 0.154,1.953 l 1.304,-0.094 c -0.049,-0.657 -0.1,-1.315 -0.155,-1.968 m -488.977,-4.312 c -0.074,0.649 -0.145,1.299 -0.21,1.95 l 1.302,0.133 c 0.064,-0.646 0.134,-1.292 0.208,-1.936 z m 488.516,-0.271 -1.298,0.149 c 0.073,0.647 0.146,1.297 0.213,1.947 l 1.298,-0.135 c -0.066,-0.654 -0.137,-1.308 -0.213,-1.961 m -487.928,-4.273 c -0.094,0.646 -0.184,1.295 -0.269,1.945 l 1.296,0.169 c 0.084,-0.643 0.173,-1.287 0.265,-1.928 z m 487.331,-0.292 -1.292,0.189 c 0.093,0.644 0.183,1.29 0.268,1.936 l 1.295,-0.17 c -0.085,-0.653 -0.177,-1.306 -0.271,-1.955 m -486.617,-4.234 c -0.112,0.644 -0.219,1.29 -0.323,1.936 l 1.291,0.207 c 0.103,-0.642 0.209,-1.283 0.32,-1.922 z m 485.891,-0.31 -1.288,0.226 c 0.113,0.642 0.219,1.285 0.324,1.928 l 1.29,-0.208 c -0.105,-0.651 -0.212,-1.297 -0.326,-1.946 m -485.054,-4.197 c -0.129,0.642 -0.253,1.284 -0.374,1.929 l 1.285,0.241 c 0.119,-0.641 0.243,-1.279 0.369,-1.915 z m 484.206,-0.322 -1.282,0.258 c 0.129,0.639 0.252,1.278 0.376,1.92 l 1.284,-0.244 c -0.123,-0.643 -0.248,-1.29 -0.378,-1.934 m -483.256,-4.161 c -0.145,0.637 -0.283,1.277 -0.421,1.918 l 1.278,0.273 c 0.136,-0.635 0.275,-1.271 0.419,-1.904 z m 482.295,-0.334 -1.276,0.289 c 0.144,0.635 0.286,1.273 0.424,1.91 l 1.278,-0.277 c -0.14,-0.642 -0.282,-1.282 -0.426,-1.922 m -481.239,-4.126 c -0.158,0.635 -0.313,1.271 -0.464,1.908 l 1.27,0.302 c 0.152,-0.631 0.306,-1.264 0.462,-1.895 z m 480.171,-0.342 -1.268,0.317 c 0.16,0.633 0.314,1.266 0.466,1.9 l 1.272,-0.304 c -0.154,-0.639 -0.31,-1.278 -0.47,-1.913 m -479.016,-4.092 c -0.171,0.63 -0.341,1.264 -0.506,1.898 l 1.264,0.33 c 0.166,-0.63 0.334,-1.259 0.503,-1.886 z m 477.852,-0.351 -1.26,0.344 c 0.17,0.627 0.34,1.259 0.507,1.891 l 1.264,-0.334 c -0.169,-0.636 -0.337,-1.269 -0.511,-1.901 m -476.609,-4.06 c -0.184,0.626 -0.364,1.257 -0.544,1.887 l 1.257,0.356 c 0.179,-0.627 0.358,-1.252 0.542,-1.877 z m 475.356,-0.358 -1.252,0.369 c 0.183,0.626 0.365,1.252 0.543,1.879 l 1.257,-0.357 c -0.179,-0.63 -0.362,-1.263 -0.548,-1.891 m -474.034,-4.029 c -0.194,0.622 -0.387,1.251 -0.575,1.876 l 1.251,0.379 c 0.188,-0.624 0.379,-1.247 0.572,-1.868 z m 472.704,-0.362 -1.248,0.388 c 0.195,0.623 0.387,1.248 0.577,1.873 l 1.252,-0.384 c -0.193,-0.626 -0.386,-1.251 -0.581,-1.877 m -471.311,-4.001 c -0.202,0.62 -0.405,1.242 -0.604,1.867 l 1.243,0.399 c 0.2,-0.621 0.402,-1.242 0.604,-1.86 z m 469.91,-0.371 -1.241,0.411 c 0.205,0.62 0.405,1.24 0.606,1.861 l 1.243,-0.401 c -0.202,-0.622 -0.404,-1.248 -0.608,-1.871 m -468.454,-3.97 c -0.211,0.616 -0.422,1.235 -0.63,1.855 l 1.237,0.416 c 0.209,-0.617 0.419,-1.233 0.63,-1.848 z m 466.991,-0.375 -1.236,0.424 c 0.212,0.617 0.423,1.236 0.632,1.853 l 1.236,-0.416 c -0.209,-0.622 -0.419,-1.241 -0.632,-1.861 m -465.482,-3.95 c -0.218,0.616 -0.436,1.232 -0.653,1.849 l 1.235,0.434 c 0.215,-0.616 0.431,-1.231 0.65,-1.846 z m 463.967,-0.379 -1.232,0.44 c 0.219,0.614 0.437,1.229 0.653,1.848 l 1.235,-0.436 c -0.218,-0.619 -0.437,-1.235 -0.656,-1.852 m -462.415,-3.929 c -0.225,0.617 -0.447,1.229 -0.671,1.846 l 1.229,0.443 c 0.223,-0.614 0.445,-1.227 0.67,-1.836 z m 460.857,-0.384 -1.228,0.452 c 0.226,0.612 0.449,1.226 0.671,1.84 l 1.23,-0.444 c -0.224,-0.615 -0.448,-1.232 -0.673,-1.848 m -459.27,-3.905 -0.683,1.836 1.225,0.455 0.683,-1.834 z m 457.677,-0.392 -1.224,0.459 0.685,1.837 1.226,-0.454 z m -456.064,-3.887 -0.693,1.833 1.222,0.462 0.693,-1.832 z m 454.445,-0.4 -1.222,0.464 0.697,1.834 1.221,-0.462 z m -452.814,-3.871 -0.702,1.828 1.222,0.467 0.698,-1.829 z m 451.181,-0.41 -1.222,0.468 0.703,1.832 1.22,-0.465 z m -449.544,-3.859 -0.703,1.829 1.22,0.469 0.702,-1.828 z m 447.904,-0.411 -1.22,0.468 0.702,1.828 1.221,-0.465 z m -446.267,-3.861 -0.702,1.831 1.221,0.469 0.701,-1.832 z m 444.631,-0.41 -1.221,0.467 0.7,1.829 1.22,-0.467 z m -443.006,-3.862 -0.694,1.831 1.22,0.465 0.697,-1.833 z m 441.382,-0.411 -1.223,0.46 0.694,1.835 1.223,-0.464 z m -439.776,-3.871 -0.685,1.836 1.223,0.459 0.688,-1.839 z m 438.173,-0.411 -1.225,0.456 0.685,1.838 1.224,-0.457 z m -436.598,-3.878 c -0.223,0.613 -0.447,1.227 -0.672,1.838 l 1.227,0.452 c 0.227,-0.615 0.45,-1.231 0.673,-1.847 z m 435.026,-0.412 -1.229,0.444 c 0.221,0.615 0.446,1.229 0.671,1.845 l 1.229,-0.45 c -0.226,-0.611 -0.448,-1.225 -0.671,-1.839 m -433.492,-3.892 c -0.216,0.616 -0.432,1.232 -0.653,1.845 l 1.231,0.44 c 0.221,-0.616 0.44,-1.234 0.655,-1.853 z m 431.963,-0.412 -1.235,0.431 c 0.216,0.618 0.434,1.235 0.653,1.853 l 1.232,-0.438 c -0.219,-0.615 -0.435,-1.229 -0.65,-1.846 m -430.478,-3.905 c -0.208,0.619 -0.419,1.236 -0.63,1.851 l 1.236,0.424 c 0.213,-0.618 0.424,-1.238 0.632,-1.858 z m 428.997,-0.416 -1.238,0.416 c 0.209,0.621 0.418,1.242 0.631,1.862 l 1.235,-0.423 c -0.21,-0.617 -0.421,-1.237 -0.628,-1.855 m -427.574,-3.921 c -0.197,0.621 -0.4,1.243 -0.603,1.861 l 1.245,0.404 c 0.203,-0.621 0.404,-1.244 0.604,-1.867 z m 426.157,-0.417 -1.247,0.395 c 0.199,0.623 0.399,1.248 0.604,1.871 l 1.243,-0.406 c -0.202,-0.618 -0.403,-1.241 -0.6,-1.86 m -424.803,-3.94 c -0.189,0.624 -0.378,1.247 -0.571,1.868 l 1.248,0.388 c 0.194,-0.627 0.386,-1.253 0.572,-1.88 z m 423.456,-0.423 -1.251,0.375 c 0.187,0.627 0.376,1.253 0.569,1.882 l 1.251,-0.386 c -0.193,-0.624 -0.382,-1.247 -0.569,-1.871 m -422.19,-3.953 -0.053,0.193 c -0.158,0.561 -0.315,1.121 -0.477,1.682 l 1.255,0.361 c 0.163,-0.564 0.322,-1.128 0.48,-1.694 l 0.057,-0.202 z m 420.942,-0.417 -1.266,0.317 c 0.054,0.222 0.11,0.435 0.17,0.642 0.118,0.423 0.236,0.846 0.357,1.27 l 1.256,-0.361 c -0.12,-0.42 -0.238,-0.841 -0.354,-1.258 -0.056,-0.199 -0.111,-0.402 -0.163,-0.61 m -420.057,-3.993 c -0.101,0.667 -0.208,1.303 -0.323,1.91 l 1.286,0.24 c 0.117,-0.621 0.225,-1.274 0.327,-1.959 z m 419.22,-0.435 -1.293,0.186 c 0.096,0.68 0.201,1.334 0.311,1.958 l 1.287,-0.23 c -0.109,-0.61 -0.21,-1.249 -0.305,-1.914 m -418.687,-4.071 c -0.062,0.661 -0.127,1.309 -0.199,1.937 l 1.3,0.148 c 0.07,-0.637 0.138,-1.293 0.201,-1.965 z m 418.176,-0.439 -1.301,0.115 c 0.058,0.673 0.123,1.328 0.191,1.964 l 1.3,-0.14 c -0.067,-0.63 -0.131,-1.275 -0.19,-1.939 m -417.84,-4.102 c -0.038,0.66 -0.079,1.311 -0.125,1.945 l 1.304,0.096 c 0.046,-0.643 0.089,-1.299 0.126,-1.966 z m 417.518,-0.441 -1.304,0.071 c 0.037,0.668 0.076,1.322 0.12,1.966 l 1.306,-0.089 c -0.043,-0.636 -0.085,-1.286 -0.122,-1.948 m -417.312,-4.115 c -0.022,0.659 -0.047,1.312 -0.074,1.953 l 1.304,0.055 c 0.028,-0.646 0.054,-1.3 0.077,-1.965 z m 417.117,-0.442 -1.305,0.041 c 0.021,0.664 0.044,1.319 0.069,1.965 l 1.306,-0.053 c -0.026,-0.641 -0.048,-1.293 -0.07,-1.953 m -417.006,-4.12 c -0.011,0.66 -0.023,1.309 -0.038,1.956 l 1.307,0.03 c 0.014,-0.65 0.027,-1.304 0.037,-1.967 z m 416.904,-0.442 -1.307,0.018 c 0.009,0.661 0.02,1.315 0.033,1.964 l 1.307,-0.025 c -0.011,-0.646 -0.025,-1.297 -0.033,-1.957 m -416.869,-4.123 c 0,0.657 -10e-4,1.31 -0.007,1.956 l 1.307,0.008 c 0.005,-0.65 0.006,-1.305 0.008,-1.964 z m 416.838,-0.445 h -1.306 v 0.068 c 0,0.636 0.002,1.269 0.004,1.898 l 1.308,-0.008 c -0.006,-0.626 -0.006,-1.256 -0.006,-1.89 z m -415.554,-4.139 -1.307,0.014 c 0.008,0.655 0.015,1.309 0.016,1.96 l 1.308,-0.01 c -0.004,-0.65 -0.01,-1.305 -0.017,-1.964 m 414.275,-0.444 c -0.008,0.658 -0.012,1.311 -0.019,1.964 l 1.307,0.01 c 0.006,-0.65 0.012,-1.305 0.021,-1.96 z m -414.347,-4.142 -1.308,0.027 c 0.014,0.656 0.026,1.31 0.038,1.964 l 1.306,-0.022 c -0.009,-0.655 -0.023,-1.312 -0.036,-1.969 m 414.424,-0.435 c -0.012,0.653 -0.026,1.308 -0.039,1.962 l 1.31,0.022 c 0.01,-0.65 0.023,-1.301 0.037,-1.956 z m -414.541,-4.149 -1.306,0.039 c 0.02,0.654 0.039,1.306 0.055,1.959 l 1.305,-0.034 c -0.016,-0.655 -0.033,-1.31 -0.054,-1.964 m 414.662,-0.435 c -0.02,0.656 -0.039,1.312 -0.057,1.967 l 1.308,0.034 c 0.017,-0.653 0.035,-1.306 0.055,-1.959 z m -414.814,-4.141 -1.307,0.051 0.07,1.954 1.306,-0.044 z m 414.972,-0.442 -0.073,1.965 1.307,0.047 0.071,-1.963 z m -415.16,-4.136 -1.305,0.059 0.084,1.959 1.304,-0.054 z m 415.349,-0.442 -0.086,1.96 1.306,0.055 0.086,-1.959 z m -415.566,-4.135 -1.305,0.067 c 0.032,0.649 0.065,1.301 0.095,1.959 l 1.306,-0.063 c -0.031,-0.658 -0.065,-1.312 -0.096,-1.963 m 415.787,-0.442 c -0.034,0.649 -0.067,1.304 -0.097,1.962 l 1.306,0.061 c 0.029,-0.654 0.062,-1.307 0.097,-1.956 z m -416.035,-4.132 -1.305,0.074 0.109,1.957 1.305,-0.07 z m 416.286,-0.443 -0.11,1.96 1.304,0.072 0.11,-1.955 z m -416.562,-4.129 -1.305,0.084 0.123,1.955 1.303,-0.08 z m 416.839,-0.445 -0.122,1.961 1.305,0.079 0.121,-1.956 z m -417.143,-4.129 -1.304,0.091 0.134,1.956 1.303,-0.086 z m 417.45,-0.44 -0.135,1.959 1.305,0.088 0.135,-1.956 z m -417.786,-4.128 -1.302,0.1 0.147,1.954 1.303,-0.096 z m 418.123,-0.442 c -0.047,0.63 -0.098,1.284 -0.147,1.959 l 1.302,0.094 c 0.052,-0.671 0.1,-1.323 0.149,-1.953 z m -418.494,-4.127 -1.302,0.111 c 0.053,0.616 0.108,1.268 0.163,1.951 l 1.305,-0.103 c -0.056,-0.688 -0.111,-1.34 -0.166,-1.959 m 418.871,-0.443 c -0.055,0.616 -0.11,1.269 -0.166,1.957 l 1.302,0.107 c 0.057,-0.687 0.112,-1.337 0.166,-1.951 z m -419.274,-4.117 -1.302,0.115 0.175,1.953 1.3,-0.114 z m 419.679,-0.442 -0.175,1.954 1.302,0.115 0.173,-1.954 z m -359.941,-0.47 c -0.636,0.006 -1.291,0.01 -1.957,0.014 l 0.004,1.306 c 0.67,-0.003 1.324,-0.008 1.964,-0.012 z m 306.251,0 c -0.655,0.006 -1.309,0.01 -1.959,0.011 l 0.006,1.307 c 0.652,-0.001 1.306,-0.006 1.964,-0.01 z m -312.777,-0.002 -0.014,1.308 c 0.659,0.005 1.315,0.009 1.968,0.011 l 0.005,-1.307 c -0.65,0 -1.305,-0.007 -1.959,-0.012 m 306.252,-0.003 -0.011,1.31 c 0.639,0.005 1.294,0.01 1.963,0.012 l 0.005,-1.307 c -0.665,-0.003 -1.319,-0.008 -1.957,-0.015 m 11.099,-0.058 c -0.654,0.011 -1.307,0.024 -1.963,0.034 l 0.02,1.305 c 0.656,-0.008 1.313,-0.019 1.969,-0.032 z m -321.919,-0.008 -0.026,1.307 c 0.656,0.015 1.31,0.025 1.965,0.034 l 0.021,-1.307 c -0.654,-0.01 -1.306,-0.022 -1.96,-0.034 m 15.655,-0.009 c -0.635,0.017 -1.286,0.033 -1.955,0.043 l 0.025,1.307 c 0.673,-0.011 1.325,-0.026 1.965,-0.041 z m 290.605,-0.011 -0.037,1.306 c 0.638,0.019 1.293,0.036 1.965,0.047 l 0.027,-1.306 c -0.669,-0.015 -1.32,-0.031 -1.955,-0.047 m 20.231,-0.081 -1.96,0.052 0.032,1.307 1.964,-0.052 z m -331.069,-0.012 -0.037,1.306 c 0.653,0.021 1.31,0.037 1.969,0.054 l 0.031,-1.307 c -0.654,-0.016 -1.309,-0.036 -1.963,-0.053 m 24.79,-0.059 c -0.629,0.029 -1.28,0.058 -1.952,0.082 l 0.049,1.306 c 0.677,-0.026 1.33,-0.052 1.965,-0.083 z m 281.493,-0.024 -0.065,1.307 c 0.634,0.032 1.287,0.061 1.964,0.088 l 0.053,-1.306 c -0.673,-0.027 -1.324,-0.055 -1.952,-0.089 m 29.352,-0.053 -1.96,0.068 0.042,1.306 1.964,-0.07 z m -340.205,-0.018 -0.05,1.307 1.963,0.07 0.044,-1.306 z m 344.774,-0.168 c -0.648,0.029 -1.302,0.056 -1.96,0.084 l 0.054,1.306 c 0.66,-0.028 1.313,-0.054 1.964,-0.083 z m -310.869,-0.017 c -0.622,0.048 -1.27,0.092 -1.946,0.136 l 0.082,1.304 c 0.682,-0.042 1.338,-0.087 1.965,-0.136 z m -38.475,0 -0.059,1.304 1.962,0.084 0.055,-1.305 z m 310.88,-0.034 -0.107,1.304 c 0.627,0.05 1.283,0.097 1.965,0.142 l 0.085,-1.304 c -0.676,-0.045 -1.324,-0.091 -1.943,-0.142 m 43.033,-0.165 -1.959,0.097 0.063,1.306 1.962,-0.096 z m -358.483,-0.022 -0.067,1.306 1.961,0.098 0.063,-1.306 z m 47.568,-0.216 c -0.605,0.074 -1.249,0.144 -1.933,0.211 l 0.127,1.301 c 0.694,-0.067 1.349,-0.139 1.962,-0.212 z m 315.482,-0.007 -1.957,0.109 0.073,1.304 1.961,-0.108 z m -367.619,-0.025 -0.075,1.305 1.962,0.11 0.07,-1.304 z m 315.497,-0.019 -0.163,1.296 c 0.613,0.076 1.266,0.151 1.961,0.224 l 0.135,-1.302 c -0.686,-0.071 -1.328,-0.144 -1.933,-0.218 m 56.691,-0.229 c -0.639,0.039 -1.291,0.081 -1.955,0.12 l 0.077,1.305 c 0.666,-0.039 1.32,-0.081 1.961,-0.121 z m -376.755,-0.027 -0.082,1.304 c 0.638,0.042 1.292,0.08 1.96,0.119 l 0.078,-1.303 c -0.665,-0.04 -1.319,-0.079 -1.956,-0.12 m 381.322,-0.273 -1.957,0.134 0.085,1.303 1.961,-0.13 z m -385.89,-0.028 -0.089,1.303 c 0.63,0.044 1.285,0.088 1.959,0.134 l 0.088,-1.304 c -0.673,-0.046 -1.325,-0.09 -1.958,-0.133 m 65.74,-0.084 c -0.571,0.112 -1.202,0.227 -1.903,0.339 l 0.205,1.291 c 0.719,-0.115 1.371,-0.231 1.955,-0.348 z m 254.434,-0.087 -0.27,1.279 c 0.604,0.128 1.261,0.252 1.953,0.367 l 0.216,-1.289 c -0.705,-0.117 -1.335,-0.236 -1.899,-0.357 m 70.282,-0.126 -1.958,0.144 0.094,1.303 1.959,-0.143 z m -395.022,-0.031 -0.096,1.302 1.96,0.144 0.095,-1.303 z m 399.586,-0.324 c -0.544,0.044 -1.198,0.097 -1.955,0.157 l 0.102,1.302 c 0.757,-0.057 1.414,-0.111 1.959,-0.155 z m -404.149,-0.035 -0.106,1.301 1.959,0.159 0.104,-1.305 z m 408.71,-0.359 -1.951,0.173 0.114,1.3 1.953,-0.171 z m -413.272,-0.04 -0.114,1.303 1.953,0.172 0.114,-1.302 z m 83.8,-0.138 c -0.626,0.184 -1.252,0.362 -1.878,0.539 l 0.353,1.259 c 0.629,-0.178 1.261,-0.359 1.892,-0.542 z m 245.699,-0.122 -0.366,1.256 c 0.63,0.184 1.262,0.365 1.888,0.546 l 0.356,-1.258 c -0.625,-0.178 -1.252,-0.36 -1.878,-0.544 m 88.841,-0.149 -2.463,0.218 0.116,1.302 1.686,-0.147 -0.033,-0.38 0.603,0.051 z m -422.965,0 0.132,1.487 0.919,-0.082 0.855,0.076 0.116,-1.303 z m 92.797,-1.044 c -0.625,0.194 -1.248,0.386 -1.872,0.575 l 0.379,1.25 c 0.627,-0.188 1.253,-0.381 1.88,-0.578 z m 236.964,-0.129 -0.392,1.246 c 0.625,0.197 1.251,0.389 1.877,0.582 l 0.379,-1.252 c -0.62,-0.191 -1.243,-0.382 -1.864,-0.576 m -232.617,-1.266 c -0.622,0.205 -1.243,0.406 -1.863,0.606 l 0.401,1.246 c 0.622,-0.202 1.246,-0.406 1.869,-0.61 z m 228.271,-0.135 -0.41,1.241 c 0.623,0.207 1.245,0.41 1.867,0.611 l 0.401,-1.243 c -0.618,-0.201 -1.238,-0.404 -1.858,-0.609 m -223.947,-1.324 c -0.616,0.213 -1.234,0.423 -1.85,0.633 l 0.418,1.238 c 0.619,-0.21 1.239,-0.421 1.86,-0.636 z m 219.624,-0.14 -0.428,1.237 c 0.619,0.214 1.238,0.425 1.858,0.635 l 0.419,-1.238 c -0.616,-0.21 -1.234,-0.42 -1.849,-0.634 m -215.315,-1.374 c -0.612,0.22 -1.226,0.439 -1.842,0.654 l 0.431,1.234 c 0.618,-0.216 1.237,-0.435 1.853,-0.657 z m 211.006,-0.145 -0.439,1.23 c 0.615,0.221 1.23,0.442 1.847,0.66 l 0.436,-1.232 c -0.615,-0.22 -1.23,-0.437 -1.844,-0.658 m -206.71,-1.413 -1.84,0.675 0.448,1.228 1.843,-0.676 z m 202.416,-0.146 -0.451,1.224 1.843,0.676 0.446,-1.228 z m -198.132,-1.446 c -0.611,0.229 -1.221,0.461 -1.835,0.685 l 0.457,1.228 c 0.613,-0.229 1.226,-0.459 1.838,-0.689 z m 193.849,-0.151 -0.461,1.222 c 0.612,0.232 1.226,0.459 1.839,0.689 l 0.457,-1.225 c -0.612,-0.228 -1.224,-0.457 -1.835,-0.686 m -189.572,-1.466 -1.83,0.696 0.46,1.222 1.834,-0.696 z m 185.296,-0.154 -0.465,1.221 1.833,0.698 0.465,-1.222 z m -181.025,-1.481 -1.831,0.703 0.469,1.22 1.83,-0.702 z m 176.751,-0.154 -0.468,1.221 1.834,0.7 0.466,-1.219 z m -172.481,-1.484 -1.83,0.702 0.469,1.221 1.831,-0.702 z m 168.215,-0.153 -0.467,1.219 1.826,0.702 0.468,-1.221 z m -163.938,-1.486 -1.833,0.703 0.466,1.22 1.835,-0.701 z m 159.668,-0.149 -0.466,1.222 1.828,0.698 0.468,-1.221 z m -155.383,-1.473 -1.837,0.693 0.464,1.223 1.834,-0.694 z m 151.106,-0.147 -0.459,1.225 1.829,0.689 0.464,-1.222 z m -146.812,-1.458 c -0.613,0.228 -1.226,0.455 -1.842,0.686 l 0.458,1.225 c 0.612,-0.23 1.222,-0.459 1.837,-0.683 z m 142.525,-0.139 -0.453,1.228 c 0.614,0.224 1.225,0.451 1.835,0.679 l 0.457,-1.227 c -0.612,-0.226 -1.225,-0.453 -1.839,-0.68 m -138.218,-1.433 c -0.617,0.222 -1.233,0.446 -1.848,0.671 l 0.448,1.226 c 0.613,-0.22 1.228,-0.445 1.843,-0.664 z m 133.918,-0.133 -0.441,1.231 c 0.614,0.22 1.228,0.442 1.838,0.665 l 0.448,-1.228 c -0.615,-0.224 -1.229,-0.445 -1.845,-0.668 m -129.597,-1.397 c -0.618,0.214 -1.235,0.431 -1.852,0.651 l 0.435,1.231 c 0.615,-0.216 1.231,-0.433 1.847,-0.648 z m 125.28,-0.127 -0.429,1.234 c 0.616,0.213 1.231,0.428 1.846,0.645 l 0.435,-1.233 c -0.615,-0.216 -1.232,-0.432 -1.852,-0.646 m -120.937,-1.355 c -0.623,0.207 -1.244,0.417 -1.865,0.629 l 0.422,1.237 c 0.618,-0.21 1.236,-0.418 1.857,-0.626 z m 116.603,-0.122 -0.414,1.242 c 0.622,0.205 1.238,0.413 1.854,0.623 l 0.422,-1.24 c -0.621,-0.209 -1.242,-0.417 -1.862,-0.625 m -112.245,-1.303 c -0.622,0.2 -1.247,0.401 -1.87,0.604 l 0.406,1.243 c 0.62,-0.202 1.241,-0.401 1.862,-0.601 z m 107.889,-0.112 -0.396,1.245 c 0.623,0.198 1.242,0.398 1.862,0.598 l 0.402,-1.244 c -0.622,-0.202 -1.245,-0.4 -1.868,-0.599 m -103.503,-1.244 c -0.629,0.189 -1.257,0.379 -1.882,0.571 l 0.385,1.25 c 0.624,-0.192 1.246,-0.384 1.872,-0.568 z m 99.124,-0.106 -0.374,1.252 c 0.623,0.188 1.247,0.376 1.87,0.569 l 0.383,-1.25 c -0.625,-0.194 -1.252,-0.383 -1.879,-0.571 m -94.716,-1.176 c -0.633,0.178 -1.262,0.358 -1.893,0.541 l 0.364,1.256 c 0.625,-0.182 1.254,-0.361 1.882,-0.537 z m 90.315,-0.096 -0.351,1.259 c 0.626,0.175 1.253,0.353 1.877,0.533 l 0.364,-1.257 c -0.629,-0.181 -1.26,-0.359 -1.89,-0.535 m -85.882,-1.098 c -0.633,0.163 -1.27,0.33 -1.903,0.5 l 0.338,1.263 c 0.63,-0.17 1.263,-0.335 1.892,-0.498 z m 81.455,-0.088 -0.324,1.266 c 0.63,0.162 1.259,0.326 1.887,0.495 l 0.336,-1.264 c -0.631,-0.168 -1.264,-0.334 -1.899,-0.497 m -76.994,-1.015 c -0.64,0.149 -1.277,0.303 -1.916,0.459 l 0.312,1.27 c 0.633,-0.155 1.267,-0.307 1.902,-0.458 z m 72.542,-0.077 -0.297,1.272 c 0.635,0.148 1.267,0.301 1.898,0.452 l 0.309,-1.268 c -0.636,-0.156 -1.271,-0.307 -1.91,-0.456 m -68.058,-0.923 c -0.641,0.137 -1.286,0.273 -1.927,0.415 l 0.285,1.277 c 0.635,-0.142 1.273,-0.279 1.912,-0.414 z m 63.583,-0.065 -0.265,1.279 c 0.636,0.132 1.271,0.267 1.908,0.407 l 0.279,-1.277 c -0.639,-0.139 -1.28,-0.277 -1.922,-0.409 m -59.07,-0.824 c -0.648,0.12 -1.294,0.24 -1.938,0.368 l 0.251,1.282 c 0.639,-0.124 1.279,-0.246 1.921,-0.365 z m 54.572,-0.056 -0.234,1.287 c 0.642,0.115 1.28,0.235 1.917,0.359 l 0.248,-1.283 c -0.643,-0.123 -1.284,-0.245 -1.931,-0.363 m -50.038,-0.714 c -0.649,0.102 -1.299,0.206 -1.946,0.317 l 0.215,1.287 c 0.644,-0.108 1.288,-0.213 1.933,-0.312 z m 45.52,-0.044 -0.2,1.292 c 0.643,0.099 1.285,0.2 1.924,0.307 l 0.215,-1.289 c -0.646,-0.107 -1.292,-0.211 -1.939,-0.31 m -40.963,-0.598 c -0.654,0.081 -1.305,0.167 -1.955,0.258 l 0.18,1.295 c 0.645,-0.089 1.291,-0.175 1.939,-0.257 z m 36.424,-0.034 -0.162,1.295 c 0.647,0.081 1.29,0.167 1.93,0.254 l 0.181,-1.294 c -0.649,-0.089 -1.297,-0.175 -1.949,-0.255 m -31.847,-0.479 c -0.656,0.065 -1.312,0.131 -1.964,0.203 l 0.142,1.302 c 0.647,-0.073 1.297,-0.138 1.946,-0.2 z m 27.294,-0.021 -0.121,1.303 c 0.644,0.058 1.291,0.125 1.932,0.193 l 0.142,-1.3 c -0.649,-0.069 -1.3,-0.135 -1.953,-0.196 m -22.708,-0.346 c -0.656,0.043 -1.31,0.091 -1.964,0.139 l 0.103,1.304 c 0.648,-0.051 1.296,-0.097 1.945,-0.139 z m 18.129,-0.015 -0.082,1.304 c 0.649,0.04 1.299,0.086 1.946,0.136 l 0.099,-1.303 c -0.653,-0.05 -1.307,-0.096 -1.963,-0.137 m -13.54,-0.209 c -0.657,0.023 -1.312,0.047 -1.966,0.078 l 0.058,1.305 c 0.65,-0.029 1.3,-0.056 1.952,-0.078 z m 8.951,-0.008 -0.042,1.306 c 0.651,0.021 1.301,0.045 1.949,0.076 l 0.06,-1.307 c -0.654,-0.029 -1.311,-0.054 -1.967,-0.075 M -1.1,-489.14 c -0.659,0 -1.316,0.006 -1.969,0.016 l 0.018,1.305 c 1.217,-0.018 2.446,-0.018 3.663,-10e-4 l 0.017,-1.308 c -0.575,-0.008 -1.152,-0.012 -1.729,-0.012"
             style="fill:#414042;fill-opacity:1;fill-rule:nonzero;stroke:none"
             id="path7496"
             inkscape:connector-curvature="0" />
        </g>
        <g
           id="g7498"
           transform="translate(938.4141,339.4121)">
          <path
             d="m 0,0 c 11.335,40.578 34.407,78.308 34.407,123.516 0,45.21 -23.072,82.935 -34.407,123.517 -5.431,19.446 0,80.768 0,80.768 0,0 -61.322,-5.433 -80.77,0 -40.58,11.335 -78.305,34.406 -123.513,34.406 -45.209,0 -82.936,-23.071 -123.516,-34.406 -19.448,-5.433 -80.77,0 -80.77,0 0,0 5.433,-61.322 0,-80.768 -11.334,-40.582 -34.406,-78.307 -34.406,-123.517 0,-45.208 23.072,-82.938 34.406,-123.516 5.433,-19.446 0,-80.769 0,-80.769 0,0 61.322,5.433 80.77,0 40.578,-11.335 78.306,-34.405 123.516,-34.405 45.208,0 82.936,23.07 123.514,34.405 19.449,5.433 80.769,0 80.769,0 0,0 -5.431,61.323 0,80.769"
             style="fill:#ffffff;fill-opacity:1;fill-rule:nonzero;stroke:none"
             id="path7500"
             inkscape:connector-curvature="0" />
        </g>
      </g>
    </g>
  </g>
</svg>
